<svg version="1.1" xmlns="http://www.w3.org/2000/svg" viewBox="0 0 1697.2594604492188 793" width="5091.778381347656" height="2379">
  <!-- svg-source:excalidraw -->
  
  <defs>
    <style class="style-fonts">
      @font-face {
        font-family: "Virgil";
        src: url("https://excalidraw.com/Virgil.woff2");
      }
      @font-face {
        font-family: "Cascadia";
        src: url("https://excalidraw.com/Cascadia.woff2");
      }
    </style>
    
  </defs>
  <rect x="0" y="0" width="1697.2594604492188" height="793" fill="#ffffff"></rect><g stroke-linecap="round" transform="translate(510 143) rotate(0 267.5 182.5)"><path d="M32 0 M32 0 C127.26 -0.91, 221.41 -0.14, 503 0 M32 0 C162.77 0.93, 292.96 1.54, 503 0 M503 0 C523.49 1.8, 533.91 8.81, 535 32 M503 0 C523.22 0.43, 536.94 10.56, 535 32 M535 32 C533.64 143.28, 534.2 257.56, 535 333 M535 32 C536.81 94.53, 536.84 158.4, 535 333 M535 333 C534.97 355.21, 522.7 363.74, 503 365 M535 333 C533.23 354.88, 526.22 363.05, 503 365 M503 365 C404.76 362.87, 306.54 363.26, 32 365 M503 365 C334.57 365.83, 165.96 365.31, 32 365 M32 365 C11.76 363.77, -1.11 352.88, 0 333 M32 365 C12.25 364.85, -0.03 356.55, 0 333 M0 333 C0.38 219.86, 0.02 107.51, 0 32 M0 333 C-1.86 219.77, -1.6 105.06, 0 32 M0 32 C-1.66 9.86, 9.92 0.09, 32 0 M0 32 C-1.78 12.89, 8.62 -1.04, 32 0" stroke="#1e1e1e" stroke-width="1" fill="none"></path></g><g stroke-linecap="round" transform="translate(13 144) rotate(0 142 35.5)"><path d="M17.75 0 M17.75 0 C110.58 2.94, 205.63 1.09, 266.25 0 M17.75 0 C94.77 0.94, 172.29 0.64, 266.25 0 M266.25 0 C276.7 1.91, 285.48 6.3, 284 17.75 M266.25 0 C280.08 -1.57, 282.91 5.44, 284 17.75 M284 17.75 C283.54 28.08, 282.39 40.88, 284 53.25 M284 17.75 C282.95 30.58, 283.32 41.62, 284 53.25 M284 53.25 C284.8 66.32, 278.8 69.5, 266.25 71 M284 53.25 C284.5 65.99, 277.73 70.98, 266.25 71 M266.25 71 C197.15 72.39, 128.99 70.07, 17.75 71 M266.25 71 C172.57 72.29, 77.97 71.79, 17.75 71 M17.75 71 C6.15 69.79, 0.73 64.34, 0 53.25 M17.75 71 C5.98 72.96, -1.37 64.17, 0 53.25 M0 53.25 C1.85 41.8, -1.5 35.84, 0 17.75 M0 53.25 C0.96 44.5, -0.21 36.5, 0 17.75 M0 17.75 C-1.1 5.64, 6.71 1.25, 17.75 0 M0 17.75 C0.1 7.7, 7.12 1.21, 17.75 0" stroke="#1e1e1e" stroke-width="1" fill="none"></path></g><g stroke-linecap="round" transform="translate(12 215) rotate(0 142 35.5)"><path d="M17.75 0 M17.75 0 C107.48 2.78, 198.84 1.99, 266.25 0 M17.75 0 C97.3 1.32, 175.52 1.06, 266.25 0 M266.25 0 C278.73 -0.72, 282.74 5.33, 284 17.75 M266.25 0 C276.2 -1.23, 281.74 3.92, 284 17.75 M284 17.75 C282.74 27.84, 284.11 40.99, 284 53.25 M284 17.75 C283.37 26.8, 283.55 35.53, 284 53.25 M284 53.25 C282.77 65.03, 279.82 71.8, 266.25 71 M284 53.25 C284.69 63.29, 277.72 71.63, 266.25 71 M266.25 71 C166.53 67.47, 69.27 69.56, 17.75 71 M266.25 71 C174.01 69.72, 81.87 69.61, 17.75 71 M17.75 71 C3.93 72.07, 1.04 65.83, 0 53.25 M17.75 71 C3.83 69.99, 0.44 64.27, 0 53.25 M0 53.25 C1.71 41.6, 0.98 25.98, 0 17.75 M0 53.25 C1.2 40, 0.63 25.3, 0 17.75 M0 17.75 C-0.77 5.92, 4.46 -1.62, 17.75 0 M0 17.75 C1.12 8.11, 4.64 -0.81, 17.75 0" stroke="#1e1e1e" stroke-width="1" fill="none"></path></g><g stroke-linecap="round" transform="translate(10 286) rotate(0 142 35.5)"><path d="M17.75 0 M17.75 0 C101.36 0.03, 186.12 -2.17, 266.25 0 M17.75 0 C77.36 -0.25, 137.4 -0.12, 266.25 0 M266.25 0 C276.35 0.85, 283.31 6.54, 284 17.75 M266.25 0 C279.47 0.64, 281.72 3.69, 284 17.75 M284 17.75 C284.61 26.03, 285.22 36.41, 284 53.25 M284 17.75 C284.32 28.42, 284.5 38.61, 284 53.25 M284 53.25 C284.48 63.52, 278.29 72.81, 266.25 71 M284 53.25 C282.86 65.56, 280.08 73.18, 266.25 71 M266.25 71 C204.94 70.28, 146.25 72.17, 17.75 71 M266.25 71 C208.25 69.1, 149.97 68.72, 17.75 71 M17.75 71 C6.12 69.31, -0.91 63.71, 0 53.25 M17.75 71 C3.75 69.54, 2 65.87, 0 53.25 M0 53.25 C-0.82 42.84, 0.24 32.17, 0 17.75 M0 53.25 C-0.96 39.63, -0.97 26.39, 0 17.75 M0 17.75 C1.39 6.17, 7.87 -0.42, 17.75 0 M0 17.75 C1.71 6.85, 4.65 -1.58, 17.75 0" stroke="#1e1e1e" stroke-width="1" fill="none"></path></g><g transform="translate(70.05009460449219 309) rotate(0 81.94990539550781 12.5)"><text x="81.94990539550781" y="0" font-family="Virgil, Segoe UI Emoji" font-size="20px" fill="#1e1e1e" text-anchor="middle" style="white-space: pre;" direction="ltr" dominant-baseline="text-before-edge">my youtube name</text></g><g stroke-linecap="round" transform="translate(11 354) rotate(0 142 35.5)"><path d="M17.75 0 M17.75 0 C111.72 1.53, 205.55 0.42, 266.25 0 M17.75 0 C89.24 1.97, 160.61 1.4, 266.25 0 M266.25 0 C280.02 1.69, 283.01 7.46, 284 17.75 M266.25 0 C278.81 1.21, 285.08 5.53, 284 17.75 M284 17.75 C284.6 25.06, 285.75 33.75, 284 53.25 M284 17.75 C284.44 30.15, 284.06 41.73, 284 53.25 M284 53.25 C285.09 66.36, 276.26 70.31, 266.25 71 M284 53.25 C282.92 63.24, 277.98 72.16, 266.25 71 M266.25 71 C188.85 71.08, 111.32 71.75, 17.75 71 M266.25 71 C197.07 71.05, 127.66 71.14, 17.75 71 M17.75 71 C6.82 71.49, 0.48 66.22, 0 53.25 M17.75 71 C7.87 68.71, -0.49 65.92, 0 53.25 M0 53.25 C-1.56 42.95, 0.06 30.67, 0 17.75 M0 53.25 C-0.1 46.72, 0.74 37.69, 0 17.75 M0 17.75 C1.65 5.04, 7.41 -1.66, 17.75 0 M0 17.75 C-1.92 4.48, 6.94 -0.77, 17.75 0" stroke="#1e1e1e" stroke-width="1" fill="none"></path></g><g stroke-linecap="round" transform="translate(10 426) rotate(0 142 35.5)"><path d="M17.75 0 M17.75 0 C84.75 -0.26, 149.95 -0.41, 266.25 0 M17.75 0 C108.75 -1.6, 198.57 -1.43, 266.25 0 M266.25 0 C278.89 -1.44, 282.04 4.28, 284 17.75 M266.25 0 C277.43 0.52, 282.45 7.25, 284 17.75 M284 17.75 C283.7 28.57, 285.52 41.52, 284 53.25 M284 17.75 C284.2 27.7, 283.4 36.56, 284 53.25 M284 53.25 C284.15 63.4, 277.43 72.01, 266.25 71 M284 53.25 C286.24 63, 277.02 70.79, 266.25 71 M266.25 71 C201.4 73.3, 133.59 72.6, 17.75 71 M266.25 71 C173.87 73.33, 79.74 72.26, 17.75 71 M17.75 71 C5.4 71.32, 0.96 66.53, 0 53.25 M17.75 71 C6.87 70.88, 0.5 64.41, 0 53.25 M0 53.25 C0.16 45.78, -0.21 36.48, 0 17.75 M0 53.25 C0.09 45.46, 0.12 38.05, 0 17.75 M0 17.75 C1.22 4.49, 6.87 -1.2, 17.75 0 M0 17.75 C0.82 8.07, 4.67 -0.57, 17.75 0" stroke="#1e1e1e" stroke-width="1" fill="none"></path></g><g stroke-linecap="round"><g transform="translate(282 170) rotate(0 142.1381915708444 45.4531833046768)"><path d="M0.1 -0.21 C47.36 14.99, 236.14 76.73, 283.26 92.28 M-1.3 -1.37 C46.36 13.97, 237.84 74.86, 285.58 90.3" stroke="#1e1e1e" stroke-width="1" fill="none"></path></g><g transform="translate(282 170) rotate(0 142.1381915708444 45.4531833046768)"><path d="M255.24 90.23 C264.4 89.16, 274.05 89.61, 286.69 91.57 M255.02 90.65 C263.76 91.36, 272.84 90.59, 285.89 90.69" stroke="#1e1e1e" stroke-width="1" fill="none"></path></g><g transform="translate(282 170) rotate(0 142.1381915708444 45.4531833046768)"><path d="M261.5 70.69 C269.09 75.06, 277 80.95, 286.69 91.57 M261.28 71.11 C268.26 77.42, 275.54 82.25, 285.89 90.69" stroke="#1e1e1e" stroke-width="1" fill="none"></path></g></g><mask></mask><g stroke-linecap="round"><g transform="translate(270 243) rotate(0 149.77222910000944 14.473048901185393)"><path d="M-1.14 -1.19 C48.71 3.93, 248.24 25.29, 298.33 30.14 M0.46 0.79 C50.77 5.66, 250.97 23.97, 300.69 28.62" stroke="#1e1e1e" stroke-width="1" fill="none"></path></g><g transform="translate(270 243) rotate(0 149.77222910000944 14.473048901185393)"><path d="M269.68 35.12 C280.48 35.31, 283.65 32.25, 300.59 29.72 M272.17 37 C282.28 33.65, 293.53 30.24, 300.15 28.13" stroke="#1e1e1e" stroke-width="1" fill="none"></path></g><g transform="translate(270 243) rotate(0 149.77222910000944 14.473048901185393)"><path d="M271.57 14.68 C281.82 19.69, 284.54 21.47, 300.59 29.72 M274.06 16.56 C283.6 20.57, 294.17 24.52, 300.15 28.13" stroke="#1e1e1e" stroke-width="1" fill="none"></path></g></g><mask></mask><g transform="translate(104 461) rotate(0 81.94990539550781 12.5)"><text x="0" y="0" font-family="Virgil, Segoe UI Emoji" font-size="20px" fill="#1e1e1e" text-anchor="start" style="white-space: pre;" direction="ltr" dominant-baseline="text-before-edge">my youtube name</text></g><g transform="translate(117 387) rotate(0 65.37992858886719 12.5)"><text x="0" y="0" font-family="Virgil, Segoe UI Emoji" font-size="20px" fill="#1e1e1e" text-anchor="start" style="white-space: pre;" direction="ltr" dominant-baseline="text-before-edge">another name</text></g><g transform="translate(71 237) rotate(0 66.33992004394531 12.5)"><text x="0" y="0" font-family="Virgil, Segoe UI Emoji" font-size="20px" fill="#1e1e1e" text-anchor="start" style="white-space: pre;" direction="ltr" dominant-baseline="text-before-edge">heap meamory</text></g><g transform="translate(97 171) rotate(0 66.33992004394531 12.5)"><text x="0" y="0" font-family="Virgil, Segoe UI Emoji" font-size="20px" fill="#1e1e1e" text-anchor="start" style="white-space: pre;" direction="ltr" dominant-baseline="text-before-edge">heap meamory</text></g><g stroke-linecap="round"><g transform="translate(286 461) rotate(0 52.628258024015054 -67.67733843713069)"><path d="M-0.91 0.27 C17.34 -2.88, 92.04 -4.22, 108.81 -19.15 C125.58 -34.07, 108.5 -71.12, 99.7 -89.28 C90.91 -107.44, 74.25 -120.83, 56.05 -128.1 C37.86 -135.38, 1.6 -132.14, -9.46 -132.92 M0.81 -0.63 C18.96 -3.57, 91.35 -2.58, 107.76 -17.68 C124.18 -32.79, 107.97 -73.02, 99.31 -91.25 C90.65 -109.48, 74.13 -119.66, 55.8 -127.06 C37.47 -134.45, 0.17 -134.6, -10.65 -135.63" stroke="#1e1e1e" stroke-width="1" fill="none"></path></g><g transform="translate(286 461) rotate(0 52.628258024015054 -67.67733843713069)"><path d="M18.55 -144.56 C10.91 -141.21, 5.42 -141.89, -10.82 -134.73 M17.84 -144.36 C7.13 -140.31, -3.74 -137.36, -11.26 -135.58" stroke="#1e1e1e" stroke-width="1" fill="none"></path></g><g transform="translate(286 461) rotate(0 52.628258024015054 -67.67733843713069)"><path d="M17.36 -124.07 C10.05 -125.65, 4.85 -131.27, -10.82 -134.73 M16.66 -123.87 C6.46 -127.81, -3.94 -132.85, -11.26 -135.58" stroke="#1e1e1e" stroke-width="1" fill="none"></path></g></g><mask></mask><g transform="translate(651 269) rotate(0 47.76995086669922 50)"><text x="0" y="0" font-family="Virgil, Segoe UI Emoji" font-size="20px" fill="#1e1e1e" text-anchor="start" style="white-space: pre;" direction="ltr" dominant-baseline="text-before-edge">{</text><text x="0" y="25" font-family="Virgil, Segoe UI Emoji" font-size="20px" fill="#1e1e1e" text-anchor="start" style="white-space: pre;" direction="ltr" dominant-baseline="text-before-edge">name :jay,</text><text x="0" y="50" font-family="Virgil, Segoe UI Emoji" font-size="20px" fill="#1e1e1e" text-anchor="start" style="white-space: pre;" direction="ltr" dominant-baseline="text-before-edge">class:9th;</text><text x="0" y="75" font-family="Virgil, Segoe UI Emoji" font-size="20px" fill="#1e1e1e" text-anchor="start" style="white-space: pre;" direction="ltr" dominant-baseline="text-before-edge">}</text></g><g stroke-linecap="round"><g transform="translate(400 415) rotate(0 20.896322995796766 86.34208906659859)"><path d="M-0.66 -0.12 C6.57 28.56, 35.27 143.78, 42.45 172.93 M1.2 -1.22 C8.39 27.49, 34.96 144.89, 41.74 173.91" stroke="#1e1e1e" stroke-width="1" fill="none"></path></g><g transform="translate(400 415) rotate(0 20.896322995796766 86.34208906659859)"><path d="M25.23 149.48 C27.44 155.08, 34.14 161.24, 43.73 174.11 M26.18 147.74 C30.85 156.82, 37.75 166.55, 41.33 174.16" stroke="#1e1e1e" stroke-width="1" fill="none"></path></g><g transform="translate(400 415) rotate(0 20.896322995796766 86.34208906659859)"><path d="M45.23 144.89 C43.04 151.4, 45.31 158.57, 43.73 174.11 M46.18 143.15 C43.77 153.98, 43.55 165.34, 41.33 174.16" stroke="#1e1e1e" stroke-width="1" fill="none"></path></g></g><mask></mask><g transform="translate(400 608) rotate(0 344.5696105957031 87.5)"><text x="0" y="0" font-family="Virgil, Segoe UI Emoji" font-size="20px" fill="#1e1e1e" text-anchor="start" style="white-space: pre;" direction="ltr" dominant-baseline="text-before-edge">duplicate so if you do </text><text x="0" y="25" font-family="Virgil, Segoe UI Emoji" font-size="20px" fill="#1e1e1e" text-anchor="start" style="white-space: pre;" direction="ltr" dominant-baseline="text-before-edge">let my youtube name = jay</text><text x="0" y="50" font-family="Virgil, Segoe UI Emoji" font-size="20px" fill="#1e1e1e" text-anchor="start" style="white-space: pre;" direction="ltr" dominant-baseline="text-before-edge">then</text><text x="0" y="75" font-family="Virgil, Segoe UI Emoji" font-size="20px" fill="#1e1e1e" text-anchor="start" style="white-space: pre;" direction="ltr" dominant-baseline="text-before-edge">let another name = my user name</text><text x="0" y="100" font-family="Virgil, Segoe UI Emoji" font-size="20px" fill="#1e1e1e" text-anchor="start" style="white-space: pre;" direction="ltr" dominant-baseline="text-before-edge">then </text><text x="0" y="125" font-family="Virgil, Segoe UI Emoji" font-size="20px" fill="#1e1e1e" text-anchor="start" style="white-space: pre;" direction="ltr" dominant-baseline="text-before-edge">anothername = keshav </text><text x="0" y="150" font-family="Virgil, Segoe UI Emoji" font-size="20px" fill="#1e1e1e" text-anchor="start" style="white-space: pre;" direction="ltr" dominant-baseline="text-before-edge">then if you will print then  the my youtube name value will not change</text></g><g stroke-linecap="round" transform="translate(594 231) rotate(0 102.5 89)"><path d="M146.55 7.69 C158.36 11.05, 169.08 21.1, 177.86 29.7 C186.63 38.3, 194.7 48.67, 199.2 59.3 C203.7 69.94, 205.43 82.18, 204.84 93.51 C204.26 104.84, 201.14 117.18, 195.69 127.29 C190.23 137.4, 181.83 146.73, 172.1 154.17 C162.36 161.6, 149.73 168.11, 137.3 171.9 C124.86 175.68, 110.59 177.29, 97.5 176.9 C84.41 176.51, 70.55 174.35, 58.75 169.57 C46.95 164.78, 35.59 156.51, 26.68 148.18 C17.76 139.85, 9.57 130.19, 5.23 119.59 C0.89 108.98, -0.25 96.17, 0.63 84.55 C1.51 72.94, 4.87 60.07, 10.51 49.91 C16.15 39.75, 24.89 31.13, 34.46 23.61 C44.02 16.09, 55.75 8.57, 67.89 4.79 C80.02 1.02, 93.14 -0.09, 107.27 0.98 C121.4 2.05, 144.28 8.6, 152.67 11.23 C161.05 13.86, 158.5 15.57, 157.58 16.78 M145.15 7.23 C156.98 10.19, 167.17 17.95, 176.21 26.36 C185.25 34.77, 194.39 46.96, 199.37 57.67 C204.35 68.38, 206.77 79.2, 206.09 90.63 C205.4 102.05, 200.75 115.78, 195.27 126.23 C189.8 136.68, 182.49 145.8, 173.24 153.32 C163.99 160.84, 152.08 167.14, 139.76 171.33 C127.44 175.52, 112.35 178.67, 99.32 178.45 C86.28 178.23, 73.42 174.73, 61.55 170.01 C49.69 165.29, 37.04 158.38, 28.14 150.14 C19.24 141.89, 12.99 131.31, 8.14 120.54 C3.29 109.78, -1.02 96.91, -0.97 85.55 C-0.92 74.2, 2.81 62.67, 8.43 52.4 C14.05 42.13, 23.38 31.87, 32.74 23.94 C42.11 16.01, 52.54 8.75, 64.62 4.82 C76.7 0.88, 91.77 -0.19, 105.23 0.32 C118.69 0.84, 138.82 6.27, 145.36 7.93 C151.91 9.59, 145.48 9.12, 144.5 10.3" stroke="#1e1e1e" stroke-width="1" fill="none"></path></g><g stroke-linecap="round"><g transform="translate(791 281) rotate(0 234.5823466968443 -14.428506332285977)"><path d="M1.19 0.46 C26.01 -12.45, 105.2 -66.13, 149.2 -77.06 C193.2 -88, 229.81 -73.34, 265.18 -65.13 C300.54 -56.91, 327.44 -47.27, 361.38 -27.78 C395.32 -8.29, 450.9 38.58, 468.81 51.82 M0.35 -0.34 C25.1 -13.18, 104.77 -64.97, 148.88 -76.09 C192.99 -87.2, 229.54 -75.18, 265.03 -67.01 C300.52 -58.85, 328.03 -46.94, 361.82 -27.09 C395.61 -7.24, 450.24 39.19, 467.77 52.11" stroke="#1e1e1e" stroke-width="1" fill="none"></path></g><g transform="translate(791 281) rotate(0 234.5823466968443 -14.428506332285977)"><path d="M440.03 44.75 C446.68 47.44, 459.07 49.11, 466.46 53.46 M438.82 42.56 C447.22 45.9, 456.32 47.95, 467.25 52.38" stroke="#1e1e1e" stroke-width="1" fill="none"></path></g><g transform="translate(791 281) rotate(0 234.5823466968443 -14.428506332285977)"><path d="M452.72 28.62 C455.34 36.61, 463.65 43.47, 466.46 53.46 M451.5 26.43 C456.41 34.32, 461.9 40.96, 467.25 52.38" stroke="#1e1e1e" stroke-width="1" fill="none"></path></g></g><mask></mask><g transform="translate(1285 343) rotate(0 135.17984008789062 12.5)"><text x="0" y="0" font-family="Virgil, Segoe UI Emoji" font-size="20px" fill="#1e1e1e" text-anchor="start" style="white-space: pre;" direction="ltr" dominant-baseline="text-before-edge">no duplicate file is created</text></g><g transform="translate(1277 376) rotate(0 205.12973022460938 62.5)"><text x="0" y="0" font-family="Virgil, Segoe UI Emoji" font-size="20px" fill="#1e1e1e" text-anchor="start" style="white-space: pre;" direction="ltr" dominant-baseline="text-before-edge">if you will now change the value of </text><text x="0" y="25" font-family="Virgil, Segoe UI Emoji" font-size="20px" fill="#1e1e1e" text-anchor="start" style="white-space: pre;" direction="ltr" dominant-baseline="text-before-edge">heap meamory 2 if you have done </text><text x="0" y="50" font-family="Virgil, Segoe UI Emoji" font-size="20px" fill="#1e1e1e" text-anchor="start" style="white-space: pre;" direction="ltr" dominant-baseline="text-before-edge">heap meamory =heap meamory 2 then the</text><text x="0" y="75" font-family="Virgil, Segoe UI Emoji" font-size="20px" fill="#1e1e1e" text-anchor="start" style="white-space: pre;" direction="ltr" dominant-baseline="text-before-edge">value of heap meam. and heap meam2 will</text><text x="0" y="100" font-family="Virgil, Segoe UI Emoji" font-size="20px" fill="#1e1e1e" text-anchor="start" style="white-space: pre;" direction="ltr" dominant-baseline="text-before-edge">change.</text></g><g stroke-linecap="round" transform="translate(1375 517) rotate(0 61.5 59)"><path d="M77.45 1.16 C86.35 2.47, 95.62 8.91, 102.61 15.39 C109.59 21.87, 116.21 31.47, 119.36 40.05 C122.51 48.62, 122.71 58.06, 121.52 66.84 C120.33 75.63, 117.52 85.17, 112.22 92.76 C106.91 100.35, 98.49 108.32, 89.67 112.36 C80.85 116.4, 68.89 117.29, 59.3 117 C49.72 116.71, 40.37 114.8, 32.18 110.62 C24 106.45, 15.53 99.57, 10.19 91.94 C4.85 84.32, 0.95 73.96, 0.17 64.87 C-0.62 55.77, 1.98 46.03, 5.46 37.37 C8.94 28.7, 13.89 18.99, 21.06 12.88 C28.23 6.78, 37.42 2.06, 48.48 0.73 C59.53 -0.6, 79.58 3.29, 87.41 4.88 C95.24 6.47, 95.84 9.43, 95.46 10.29 M86.79 5.09 C95.3 7.7, 102.08 15.32, 107.92 22.45 C113.76 29.58, 119.7 39.14, 121.84 47.89 C123.98 56.64, 123.23 66.08, 120.77 74.97 C118.3 83.86, 113.71 94.7, 107.06 101.24 C100.41 107.78, 89.93 111.48, 80.86 114.21 C71.79 116.94, 62.18 119.21, 52.64 117.63 C43.1 116.05, 31.3 110.44, 23.6 104.72 C15.91 99.01, 10.44 91.32, 6.46 83.34 C2.48 75.35, -0.7 65.73, -0.26 56.82 C0.18 47.9, 4.26 37.74, 9.1 29.85 C13.95 21.97, 21.09 14.69, 28.79 9.51 C36.49 4.32, 45.89 -0.31, 55.31 -1.23 C64.73 -2.15, 80.31 3.04, 85.29 4 C90.27 4.95, 85.56 3.55, 85.2 4.5" stroke="#1e1e1e" stroke-width="1" fill="none"></path></g><g transform="translate(1412 546) rotate(0 2 4)" stroke="none"><path fill="#1e1e1e" d="M 2.31,-0.92 Q 2.31,-0.92 2.87,0.52 3.43,1.96 3.76,3.35 4.09,4.74 4.59,5.64 5.09,6.54 5.45,6.78 5.82,7.02 6.08,7.36 6.35,7.71 6.49,8.12 6.64,8.53 6.64,8.96 6.65,9.39 6.52,9.81 6.38,10.22 6.13,10.57 5.87,10.92 5.51,11.17 5.15,11.42 4.74,11.54 4.32,11.66 3.89,11.64 3.45,11.62 3.05,11.47 2.64,11.31 2.31,11.04 1.97,10.76 1.74,10.39 1.51,10.02 1.41,9.60 1.32,9.18 1.36,8.74 1.40,8.31 1.58,7.91 1.75,7.52 2.05,7.20 2.34,6.88 2.72,6.67 3.10,6.46 3.53,6.39 3.96,6.31 4.39,6.37 4.82,6.44 5.21,6.64 5.59,6.84 5.89,7.15 6.20,7.46 6.39,7.85 6.57,8.24 6.63,8.67 6.68,9.11 6.59,9.53 6.50,9.96 6.28,10.33 6.06,10.71 5.74,10.99 5.41,11.28 5.01,11.44 4.61,11.61 4.17,11.64 3.74,11.67 3.32,11.56 2.90,11.45 2.90,11.45 2.90,11.45 1.08,9.31 -0.73,7.16 -0.93,5.47 -1.13,3.78 -1.72,2.35 -2.31,0.92 -2.39,0.63 -2.47,0.34 -2.47,0.04 -2.48,-0.25 -2.41,-0.54 -2.34,-0.84 -2.21,-1.11 -2.07,-1.38 -1.88,-1.60 -1.68,-1.83 -1.44,-2.01 -1.19,-2.18 -0.91,-2.29 -0.64,-2.41 -0.34,-2.45 -0.04,-2.49 0.25,-2.46 0.55,-2.43 0.83,-2.33 1.11,-2.22 1.37,-2.06 1.62,-1.89 1.82,-1.67 2.02,-1.45 2.17,-1.19 2.31,-0.92 2.31,-0.92 L 2.31,-0.92 Z"></path></g><g transform="translate(1441 546) rotate(0 3.5 2.5)" stroke="none"><path fill="#1e1e1e" d="M 1.07,-2.15 Q 1.07,-2.15 2.24,-1.60 3.40,-1.05 4.50,-0.52 5.60,-0.00 7.26,1.61 8.92,3.22 9.15,3.57 9.38,3.93 9.49,4.34 9.60,4.75 9.57,5.17 9.54,5.59 9.38,5.98 9.22,6.37 8.94,6.69 8.66,7.01 8.30,7.22 7.93,7.44 7.52,7.52 7.10,7.61 6.68,7.56 6.26,7.51 5.88,7.32 5.50,7.14 5.20,6.85 4.89,6.55 4.70,6.17 4.51,5.80 4.44,5.38 4.38,4.96 4.45,4.54 4.53,4.13 4.73,3.76 4.93,3.39 5.24,3.10 5.56,2.81 5.94,2.64 6.33,2.47 6.75,2.43 7.17,2.39 7.58,2.48 7.99,2.58 8.35,2.80 8.71,3.02 8.98,3.35 9.25,3.68 9.40,4.07 9.56,4.47 9.57,4.89 9.59,5.31 9.47,5.72 9.35,6.12 9.11,6.47 8.87,6.82 8.53,7.07 8.19,7.32 7.79,7.45 7.38,7.58 6.96,7.57 6.54,7.57 6.14,7.43 5.74,7.29 5.41,7.03 5.07,6.77 5.07,6.77 5.07,6.77 4.16,5.60 3.25,4.43 2.22,3.89 1.19,3.35 0.05,2.75 -1.07,2.15 -1.32,1.99 -1.56,1.83 -1.76,1.62 -1.96,1.41 -2.10,1.15 -2.24,0.90 -2.31,0.61 -2.39,0.33 -2.39,0.04 -2.40,-0.24 -2.33,-0.52 -2.27,-0.81 -2.14,-1.07 -2.01,-1.33 -1.82,-1.55 -1.63,-1.77 -1.40,-1.94 -1.16,-2.11 -0.89,-2.22 -0.62,-2.33 -0.33,-2.37 -0.04,-2.41 0.24,-2.38 0.53,-2.35 0.80,-2.25 1.08,-2.15 1.08,-2.15 L 1.07,-2.15 Z"></path></g><g transform="translate(1423 595) rotate(0 22.5 -5)" stroke="none"><path fill="#1e1e1e" d="M -2.39,-0.68 Q -2.39,-0.68 -1.68,-2.65 -0.96,-4.62 -0.77,-5.95 -0.57,-7.27 -0.15,-8.46 0.26,-9.64 1.46,-11.13 2.66,-12.61 4.10,-14.53 5.55,-16.44 7.33,-17.37 9.12,-18.30 10.55,-18.53 11.98,-18.77 13.67,-18.83 15.37,-18.89 16.70,-18.87 18.03,-18.86 20.14,-18.87 22.24,-18.88 23.51,-18.53 24.77,-18.19 27.10,-17.35 29.44,-16.51 30.71,-15.95 31.99,-15.40 33.70,-14.04 35.41,-12.67 36.51,-11.45 37.60,-10.23 38.59,-8.82 39.59,-7.40 40.73,-5.61 41.87,-3.82 42.75,-2.47 43.63,-1.12 45.27,1.24 46.91,3.61 47.08,3.95 47.25,4.29 47.30,4.67 47.36,5.05 47.29,5.42 47.22,5.80 47.03,6.13 46.84,6.47 46.56,6.72 46.28,6.98 45.93,7.13 45.58,7.28 45.19,7.32 44.81,7.35 44.44,7.26 44.07,7.17 43.75,6.96 43.43,6.76 43.19,6.46 42.94,6.17 42.81,5.81 42.68,5.45 42.67,5.07 42.65,4.69 42.76,4.32 42.87,3.96 43.10,3.64 43.32,3.33 43.63,3.11 43.94,2.88 44.30,2.77 44.67,2.66 45.05,2.67 45.43,2.67 45.79,2.80 46.15,2.93 46.45,3.17 46.75,3.41 46.95,3.73 47.16,4.05 47.25,4.42 47.35,4.79 47.32,5.17 47.29,5.55 47.14,5.91 46.99,6.26 46.74,6.54 46.48,6.83 46.15,7.02 45.82,7.21 45.44,7.28 45.07,7.36 44.69,7.31 44.31,7.26 43.97,7.09 43.63,6.92 43.35,6.65 43.08,6.38 43.08,6.38 43.08,6.38 42.54,4.85 41.99,3.33 40.95,2.30 39.92,1.28 39.14,0.03 38.36,-1.21 36.96,-2.83 35.56,-4.44 34.64,-5.64 33.71,-6.84 32.99,-7.70 32.28,-8.56 31.08,-9.40 29.88,-10.23 27.54,-11.24 25.20,-12.25 23.66,-12.68 22.13,-13.11 20.09,-13.12 18.04,-13.13 16.73,-13.10 15.41,-13.08 13.88,-13.09 12.36,-13.11 10.99,-13.15 9.63,-13.19 8.51,-12.72 7.40,-12.24 6.84,-10.97 6.29,-9.70 5.07,-8.09 3.85,-6.49 3.56,-4.95 3.26,-3.42 2.83,-1.36 2.39,0.68 2.27,0.95 2.15,1.23 1.97,1.47 1.80,1.71 1.56,1.90 1.33,2.09 1.06,2.22 0.79,2.35 0.50,2.41 0.20,2.47 -0.09,2.46 -0.39,2.45 -0.67,2.37 -0.96,2.29 -1.22,2.14 -1.48,1.99 -1.70,1.78 -1.92,1.58 -2.08,1.32 -2.24,1.07 -2.34,0.79 -2.43,0.50 -2.46,0.20 -2.48,-0.09 -2.43,-0.38 -2.39,-0.68 -2.39,-0.68 L -2.39,-0.68 Z"></path></g><g stroke-linecap="round" transform="translate(800 614) rotate(0 64.5 63.5)"><path d="M35.86 5.76 C44.08 0.77, 56.09 0.34, 66.23 0.68 C76.36 1.02, 87.82 3.24, 96.65 7.79 C105.49 12.34, 113.89 19.62, 119.25 27.97 C124.6 36.33, 128.03 48.11, 128.77 57.92 C129.51 67.73, 127.56 77.71, 123.68 86.83 C119.8 95.95, 113.04 106.24, 105.49 112.64 C97.95 119.03, 88.13 123.26, 78.4 125.19 C68.67 127.13, 56.64 126.81, 47.13 124.23 C37.63 121.65, 28.74 116.35, 21.38 109.72 C14.01 103.1, 6.47 93.59, 2.97 84.48 C-0.54 75.37, -1.24 64.96, 0.35 55.05 C1.94 45.14, 5.74 33.33, 12.53 25.01 C19.31 16.7, 35.65 8.62, 41.05 5.18 C46.46 1.74, 44.66 3.47, 44.94 4.38 M34.53 5.98 C42.8 0.63, 56.14 -1.67, 65.98 -1.36 C75.82 -1.05, 84.68 3.04, 93.55 7.86 C102.42 12.69, 113.17 19.47, 119.19 27.61 C125.22 35.74, 128.58 46.68, 129.7 56.67 C130.83 66.66, 129.58 78.29, 125.95 87.53 C122.31 96.77, 115.82 105.68, 107.91 112.11 C100 118.53, 88.46 123.85, 78.46 126.09 C68.47 128.32, 57.41 128.15, 47.94 125.53 C38.47 122.91, 29.01 117.01, 21.65 110.34 C14.29 103.68, 7.4 94.89, 3.78 85.56 C0.16 76.22, -1.56 64.1, -0.08 54.32 C1.4 44.54, 7.09 34.81, 12.67 26.87 C18.24 18.94, 29.34 9.92, 33.37 6.7 C37.4 3.49, 36.13 6.47, 36.84 7.59" stroke="#1e1e1e" stroke-width="1" fill="none"></path></g><g transform="translate(828 650) rotate(0 6.5 1)" stroke="none"><path fill="#1e1e1e" d="M 0,-2.30 Q 0,-2.30 2.01,-2.20 4.02,-2.10 5.80,-2.08 7.59,-2.05 9.07,-1.41 10.56,-0.78 12.05,-0.53 13.55,-0.27 13.90,-0.13 14.25,0.01 14.53,0.26 14.81,0.52 15.00,0.84 15.19,1.17 15.26,1.55 15.34,1.92 15.29,2.29 15.24,2.67 15.07,3.01 14.91,3.35 14.64,3.62 14.37,3.89 14.03,4.06 13.70,4.23 13.32,4.29 12.94,4.34 12.57,4.27 12.20,4.20 11.87,4.02 11.54,3.83 11.28,3.55 11.03,3.27 10.88,2.92 10.72,2.57 10.69,2.20 10.66,1.82 10.75,1.45 10.84,1.08 11.04,0.76 11.24,0.44 11.54,0.20 11.83,-0.03 12.19,-0.16 12.54,-0.29 12.92,-0.31 13.30,-0.32 13.66,-0.21 14.02,-0.10 14.33,0.11 14.64,0.33 14.87,0.63 15.09,0.94 15.20,1.30 15.32,1.67 15.31,2.04 15.30,2.42 15.17,2.78 15.04,3.14 14.81,3.43 14.57,3.73 14.25,3.94 13.93,4.14 13.57,4.24 13.20,4.33 12.82,4.30 12.44,4.27 12.44,4.27 12.44,4.27 9.88,3.16 7.32,2.05 5.67,2.08 4.02,2.10 2.01,2.20 0,2.30 -0.27,2.27 -0.55,2.23 -0.81,2.14 -1.07,2.04 -1.30,1.88 -1.52,1.72 -1.71,1.51 -1.89,1.31 -2.02,1.06 -2.15,0.81 -2.22,0.54 -2.28,0.27 -2.28,-0.00 -2.28,-0.27 -2.22,-0.54 -2.15,-0.81 -2.02,-1.06 -1.89,-1.31 -1.71,-1.51 -1.52,-1.72 -1.30,-1.88 -1.07,-2.04 -0.81,-2.14 -0.55,-2.23 -0.27,-2.27 0.00,-2.30 0.00,-2.30 L 0,-2.30 Z"></path></g><g transform="translate(867 649) rotate(0 11.5 2.5)" stroke="none"><path fill="#1e1e1e" d="M 0.55,-1.95 Q 0.55,-1.95 2.54,-1.29 4.53,-0.63 7.57,-0.05 10.61,0.52 12.76,0.80 14.91,1.07 16.91,1.78 18.90,2.48 21.14,2.84 23.38,3.20 23.65,3.31 23.93,3.42 24.16,3.61 24.38,3.80 24.54,4.05 24.69,4.31 24.76,4.59 24.82,4.88 24.79,5.18 24.76,5.47 24.64,5.74 24.52,6.01 24.32,6.23 24.11,6.45 23.85,6.59 23.59,6.73 23.30,6.78 23.01,6.83 22.71,6.78 22.42,6.74 22.16,6.60 21.90,6.46 21.69,6.25 21.49,6.03 21.36,5.77 21.23,5.50 21.20,5.20 21.16,4.91 21.23,4.62 21.29,4.33 21.44,4.07 21.59,3.82 21.82,3.62 22.04,3.43 22.31,3.32 22.59,3.21 22.89,3.19 23.18,3.17 23.47,3.25 23.75,3.33 24.00,3.49 24.25,3.66 24.43,3.89 24.61,4.13 24.70,4.41 24.80,4.69 24.80,4.98 24.81,5.28 24.71,5.56 24.62,5.84 24.44,6.08 24.26,6.32 24.02,6.48 23.78,6.65 23.49,6.73 23.21,6.82 22.91,6.80 22.61,6.79 22.61,6.79 22.61,6.79 20.19,6.15 17.77,5.52 16.17,4.89 14.56,4.25 12.30,4.07 10.05,3.90 6.78,3.41 3.51,2.93 1.47,2.44 -0.55,1.95 -0.78,1.85 -1.00,1.76 -1.20,1.61 -1.40,1.46 -1.55,1.28 -1.71,1.09 -1.81,0.87 -1.92,0.64 -1.97,0.41 -2.02,0.17 -2.01,-0.07 -2.00,-0.31 -1.93,-0.55 -1.87,-0.78 -1.74,-1.00 -1.62,-1.21 -1.45,-1.39 -1.28,-1.56 -1.08,-1.69 -0.87,-1.83 -0.64,-1.90 -0.41,-1.98 -0.16,-2.00 0.07,-2.02 0.31,-1.99 0.55,-1.95 0.55,-1.95 L 0.55,-1.95 Z"></path></g><g transform="translate(824 682) rotate(0 29.5 12)" stroke="none"><path fill="#1e1e1e" d="M 1.20,-1.44 Q 1.20,-1.44 2.87,0.05 4.55,1.54 6.43,3.38 8.32,5.22 10.04,7.53 11.76,9.84 13.27,11.61 14.78,13.37 15.99,14.29 17.21,15.20 18.89,16.86 20.57,18.52 22.04,19.36 23.50,20.20 25.06,21.17 26.62,22.14 27.70,22.39 28.78,22.63 31.51,21.51 34.24,20.38 38.45,17.35 42.65,14.32 45.27,11.66 47.88,9.01 49.26,7.08 50.64,5.15 51.84,3.44 53.03,1.72 53.77,0.59 54.51,-0.53 56.46,-1.63 58.41,-2.73 58.71,-2.78 59.00,-2.83 59.29,-2.78 59.58,-2.73 59.85,-2.59 60.11,-2.45 60.31,-2.24 60.51,-2.02 60.64,-1.75 60.76,-1.48 60.79,-1.19 60.82,-0.89 60.76,-0.60 60.70,-0.31 60.54,-0.06 60.39,0.18 60.16,0.38 59.94,0.57 59.66,0.68 59.39,0.79 59.09,0.80 58.79,0.82 58.51,0.74 58.22,0.66 57.98,0.49 57.73,0.32 57.55,0.09 57.37,-0.14 57.28,-0.42 57.19,-0.70 57.19,-1.00 57.19,-1.30 57.28,-1.58 57.38,-1.86 57.56,-2.09 57.74,-2.33 57.98,-2.49 58.23,-2.66 58.52,-2.74 58.80,-2.82 59.10,-2.80 59.39,-2.78 59.67,-2.67 59.94,-2.56 60.17,-2.37 60.39,-2.18 60.55,-1.92 60.70,-1.67 60.76,-1.38 60.82,-1.09 60.79,-0.80 60.76,-0.50 60.63,-0.23 60.51,0.03 60.30,0.24 60.10,0.46 59.84,0.59 59.58,0.73 59.58,0.73 59.58,0.73 58.36,1.14 57.15,1.56 56.31,2.47 55.46,3.39 54.29,5.14 53.13,6.89 51.65,9.05 50.17,11.21 47.42,14.12 44.67,17.03 40.30,20.33 35.93,23.63 32.80,25.15 29.68,26.66 28.63,26.39 27.59,26.12 26.22,25.53 24.84,24.94 23.34,23.94 21.83,22.93 20.14,21.84 18.46,20.76 16.79,19.22 15.11,17.68 13.84,16.50 12.57,15.32 10.94,13.50 9.32,11.69 7.71,9.63 6.11,7.57 4.22,5.88 2.34,4.20 0.57,2.82 -1.20,1.44 -1.35,1.27 -1.51,1.11 -1.62,0.91 -1.73,0.71 -1.79,0.50 -1.85,0.28 -1.86,0.05 -1.86,-0.16 -1.82,-0.39 -1.77,-0.61 -1.67,-0.81 -1.57,-1.01 -1.43,-1.19 -1.28,-1.36 -1.10,-1.50 -0.92,-1.63 -0.71,-1.72 -0.50,-1.80 -0.28,-1.84 -0.05,-1.87 0.16,-1.85 0.39,-1.83 0.60,-1.76 0.82,-1.68 1.01,-1.56 1.20,-1.44 1.20,-1.44 L 1.20,-1.44 Z"></path></g><g transform="translate(877 677) rotate(0 9 6)" stroke="none"><path fill="#1e1e1e" d="M 1.07,-1.93 Q 1.07,-1.93 3.60,-0.39 6.13,1.15 8.15,2.76 10.17,4.38 11.75,5.24 13.34,6.10 14.56,7.13 15.78,8.16 17.64,9.39 19.49,10.61 19.68,10.88 19.86,11.16 19.94,11.48 20.03,11.80 20.01,12.13 19.98,12.46 19.86,12.76 19.73,13.07 19.51,13.32 19.30,13.57 19.01,13.73 18.73,13.90 18.40,13.97 18.08,14.03 17.75,14.00 17.42,13.96 17.13,13.81 16.83,13.67 16.59,13.44 16.35,13.21 16.20,12.92 16.05,12.62 16.00,12.30 15.95,11.97 16.01,11.64 16.07,11.32 16.23,11.03 16.39,10.74 16.63,10.52 16.87,10.29 17.17,10.16 17.47,10.02 17.80,9.99 18.13,9.96 18.45,10.03 18.77,10.11 19.06,10.28 19.34,10.46 19.55,10.71 19.76,10.96 19.88,11.27 19.99,11.58 20.01,11.91 20.02,12.24 19.93,12.56 19.84,12.88 19.65,13.15 19.46,13.42 19.19,13.61 18.93,13.81 18.61,13.91 18.30,14.01 17.97,14.01 17.64,14.01 17.33,13.90 17.02,13.79 16.76,13.58 16.50,13.38 16.50,13.38 16.50,13.38 14.86,12.18 13.23,10.98 12.43,10.08 11.64,9.19 9.83,8.22 8.02,7.26 6.11,5.93 4.21,4.59 1.56,3.26 -1.07,1.93 -1.28,1.77 -1.50,1.62 -1.67,1.41 -1.84,1.21 -1.96,0.97 -2.08,0.73 -2.14,0.47 -2.20,0.21 -2.19,-0.05 -2.18,-0.31 -2.11,-0.57 -2.04,-0.83 -1.91,-1.06 -1.78,-1.29 -1.60,-1.49 -1.42,-1.68 -1.20,-1.83 -0.98,-1.98 -0.72,-2.07 -0.47,-2.15 -0.21,-2.18 0.05,-2.21 0.31,-2.17 0.58,-2.13 0.82,-2.03 1.07,-1.93 1.07,-1.93 L 1.07,-1.93 Z"></path></g><g transform="translate(833 673) rotate(0 -16 11)" stroke="none"><path fill="#1e1e1e" d="M 1.31,1.53 Q 1.31,1.53 -0.75,3.18 -2.83,4.83 -4.90,6.40 -6.98,7.96 -10.21,10.07 -13.45,12.19 -16.89,13.96 -20.33,15.73 -22.56,17.27 -24.78,18.81 -26.41,19.62 -28.04,20.43 -28.78,21.26 -29.51,22.10 -29.59,20.77 -29.67,19.44 -29.86,19.58 -30.06,19.71 -30.28,19.80 -30.49,19.89 -30.73,19.92 -30.96,19.95 -31.20,19.93 -31.43,19.90 -31.65,19.82 -31.88,19.74 -32.07,19.61 -32.27,19.48 -32.43,19.31 -32.59,19.13 -32.70,18.93 -32.81,18.72 -32.87,18.49 -32.93,18.26 -32.94,18.03 -32.94,17.79 -32.89,17.56 -32.84,17.33 -32.73,17.12 -32.62,16.91 -32.47,16.73 -32.32,16.55 -32.53,16.83 -32.74,17.12 -32.56,16.86 -32.37,16.60 -32.11,16.42 -31.86,16.24 -31.55,16.15 -31.25,16.05 -30.93,16.06 -30.62,16.07 -30.32,16.18 -30.02,16.30 -29.78,16.50 -29.53,16.69 -29.36,16.96 -29.19,17.23 -29.12,17.54 -29.04,17.85 -29.07,18.16 -29.10,18.48 -29.22,18.77 -29.35,19.06 -29.56,19.29 -29.78,19.53 -30.05,19.68 -30.33,19.84 -30.64,19.89 -30.95,19.95 -31.27,19.91 -31.58,19.86 -31.86,19.72 -32.14,19.58 -32.37,19.35 -32.59,19.13 -32.73,18.84 -32.87,18.56 -32.91,18.25 -32.95,17.93 -32.89,17.62 -32.83,17.31 -32.67,17.04 -32.51,16.76 -32.28,16.55 -32.04,16.34 -31.75,16.22 -31.46,16.09 -31.14,16.07 -30.83,16.04 -30.52,16.12 -30.21,16.20 -29.95,16.37 -29.68,16.54 -29.48,16.79 -29.29,17.04 -29.18,17.34 -29.07,17.64 -29.06,17.95 -29.06,18.27 -29.36,18.85 -29.67,19.44 -29.86,19.58 -30.06,19.71 -30.28,19.80 -30.49,19.89 -30.73,19.92 -30.96,19.95 -31.20,19.93 -31.43,19.90 -31.65,19.82 -31.88,19.74 -32.07,19.61 -32.27,19.48 -32.43,19.31 -32.59,19.13 -32.70,18.93 -32.81,18.72 -32.87,18.49 -32.93,18.26 -32.94,18.03 -32.94,17.79 -32.89,17.56 -32.84,17.33 -32.73,17.12 -32.62,16.91 -32.47,16.73 -32.32,16.55 -32.00,17.94 -31.68,19.33 -30.53,18.44 -29.38,17.54 -27.91,16.98 -26.45,16.42 -24.10,14.73 -21.75,13.05 -18.48,11.30 -15.22,9.55 -12.15,7.43 -9.08,5.31 -7.15,3.68 -5.21,2.06 -3.26,0.26 -1.31,-1.53 -1.11,-1.66 -0.90,-1.80 -0.67,-1.88 -0.45,-1.96 -0.20,-1.99 0.03,-2.01 0.27,-1.98 0.51,-1.95 0.74,-1.86 0.96,-1.77 1.16,-1.63 1.36,-1.48 1.52,-1.30 1.68,-1.11 1.78,-0.90 1.89,-0.68 1.95,-0.44 2.00,-0.21 2.00,0.03 2.00,0.27 1.93,0.51 1.87,0.74 1.75,0.96 1.64,1.17 1.47,1.35 1.31,1.53 1.31,1.53 L 1.31,1.53 Z"></path></g><g transform="translate(803 636) rotate(0 111.5 -25.5)" stroke="none"><path fill="#1e1e1e" d="M -1.19,1.19 Q -1.19,1.19 -2.12,0.39 -3.06,-0.41 -4.36,-3.41 -5.65,-6.40 -6.21,-9.10 -6.77,-11.80 -8.69,-19.21 -10.61,-26.61 -12.57,-34.97 -14.53,-43.33 -15.64,-49.21 -16.76,-55.08 -17.23,-60.23 -17.70,-65.37 -17.89,-68.41 -18.08,-71.45 -17.84,-73.12 -17.60,-74.78 -16.43,-75.79 -15.26,-76.80 -13.10,-77.13 -10.94,-77.46 -8.84,-77.51 -6.73,-77.57 -3.79,-75.72 -0.85,-73.86 3.89,-71.13 8.64,-68.39 12.56,-66.96 16.49,-65.54 18.99,-64.93 21.49,-64.31 24.14,-64.34 26.79,-64.36 28.67,-64.91 30.55,-65.45 34.42,-67.92 38.30,-70.38 43.48,-73.48 48.66,-76.58 52.57,-79.03 56.49,-81.48 59.06,-82.84 61.63,-84.20 63.26,-84.88 64.88,-85.56 66.52,-84.99 68.17,-84.41 73.18,-77.86 78.19,-71.30 81.35,-67.16 84.50,-63.03 87.29,-58.92 90.08,-54.82 92.09,-52.26 94.09,-49.71 95.48,-48.40 96.86,-47.10 99.37,-47.62 101.88,-48.15 105.04,-50.42 108.20,-52.68 111.09,-54.56 113.98,-56.43 116.33,-58.07 118.69,-59.70 120.23,-60.96 121.76,-62.22 125.72,-64.26 129.68,-66.30 131.46,-67.91 133.25,-69.51 135.02,-70.62 136.78,-71.73 138.15,-72.31 139.52,-72.90 141.45,-74.16 143.39,-75.42 145.48,-74.66 147.57,-73.91 149.93,-72.64 152.29,-71.38 154.49,-69.91 156.70,-68.44 162.38,-65.86 168.05,-63.28 178.67,-61.34 189.29,-59.39 196.39,-58.83 203.49,-58.26 210.48,-58.58 217.46,-58.91 223.83,-60.18 230.20,-61.45 233.25,-61.08 236.31,-60.71 237.90,-59.16 239.50,-57.60 239.53,-54.92 239.55,-52.23 237.70,-48.69 235.84,-45.15 234.22,-42.05 232.61,-38.95 229.24,-34.92 225.88,-30.89 222.67,-28.28 219.45,-25.67 216.06,-23.42 212.67,-21.16 207.82,-17.65 202.97,-14.14 197.44,-10.33 191.91,-6.52 188.73,-4.06 185.55,-1.61 182.71,0.32 179.88,2.25 177.77,3.39 175.65,4.53 173.68,5.83 171.71,7.13 170.36,8.28 169.01,9.44 167.59,10.76 166.16,12.09 164.95,13.08 163.73,14.07 162.38,15.06 161.02,16.05 159.65,17.24 158.27,18.44 156.80,19.79 155.32,21.14 153.82,22.56 152.31,23.98 151.15,25.20 149.98,26.42 149.36,27.65 148.74,28.88 147.34,31.87 145.94,34.86 145.76,35.15 145.57,35.44 145.29,35.65 145.02,35.86 144.70,35.98 144.37,36.09 144.03,36.10 143.68,36.10 143.35,36.00 143.03,35.89 142.75,35.69 142.47,35.49 142.27,35.20 142.07,34.92 141.98,34.59 141.88,34.26 141.89,33.91 141.91,33.57 142.03,33.25 142.15,32.92 142.37,32.66 142.59,32.39 142.88,32.21 143.18,32.03 143.51,31.95 143.85,31.87 144.19,31.90 144.53,31.93 144.85,32.07 145.16,32.21 145.42,32.44 145.67,32.68 145.84,32.98 146.01,33.28 146.07,33.62 146.13,33.96 146.08,34.30 146.03,34.65 145.87,34.95 145.71,35.26 145.47,35.50 145.22,35.74 144.91,35.89 144.60,36.04 144.25,36.08 143.91,36.13 143.57,36.06 143.24,35.99 142.94,35.81 142.64,35.64 142.41,35.38 142.18,35.12 142.05,34.80 141.92,34.49 141.90,34.14 141.87,33.80 141.96,33.46 142.05,33.13 142.05,33.13 142.05,33.13 143.35,31.05 144.65,28.96 145.13,28.01 145.62,27.06 146.60,25.55 147.58,24.04 148.83,22.87 150.08,21.70 151.56,20.21 153.03,18.72 154.51,17.27 155.99,15.82 157.51,14.49 159.03,13.16 160.42,12.27 161.81,11.38 162.99,10.65 164.18,9.92 165.70,8.55 167.22,7.18 168.74,6.05 170.26,4.93 172.33,3.57 174.41,2.20 176.40,1.14 178.39,0.07 181.16,-1.81 183.93,-3.71 187.16,-6.21 190.40,-8.71 195.90,-12.50 201.41,-16.30 206.30,-19.85 211.18,-23.40 214.47,-25.59 217.75,-27.78 220.77,-30.22 223.79,-32.66 226.96,-36.45 230.14,-40.24 231.75,-43.37 233.35,-46.49 235.01,-49.48 236.67,-52.47 236.86,-54.32 237.04,-56.18 236.31,-57.19 235.57,-58.20 233.14,-58.46 230.70,-58.71 224.15,-57.39 217.61,-56.07 210.44,-55.71 203.27,-55.35 196.01,-55.88 188.75,-56.40 177.76,-58.39 166.77,-60.37 160.83,-62.97 154.90,-65.57 152.78,-66.82 150.66,-68.07 148.25,-69.15 145.85,-70.23 144.40,-70.85 142.96,-71.47 141.81,-70.65 140.66,-69.82 139.46,-69.54 138.25,-69.27 136.66,-68.35 135.07,-67.44 133.03,-65.63 130.98,-63.83 127.27,-61.90 123.56,-59.98 121.94,-58.68 120.32,-57.38 117.96,-55.69 115.59,-54.00 112.78,-52.11 109.98,-50.23 106.50,-47.70 103.03,-45.18 100.19,-44.28 97.36,-43.38 96.10,-44.18 94.85,-44.99 93.35,-46.45 91.84,-47.92 89.74,-50.53 87.65,-53.14 84.85,-57.14 82.06,-61.13 78.83,-65.23 75.60,-69.32 70.34,-76.04 65.09,-82.75 63.98,-82.30 62.88,-81.84 60.40,-80.53 57.91,-79.22 53.98,-76.74 50.05,-74.26 44.90,-71.17 39.75,-68.07 35.54,-65.44 31.34,-62.81 29.09,-62.18 26.85,-61.55 23.85,-61.52 20.85,-61.50 18.17,-62.11 15.49,-62.73 11.30,-64.20 7.11,-65.67 2.21,-68.39 -2.67,-71.10 -4.82,-72.62 -6.97,-74.13 -8.73,-73.99 -10.49,-73.84 -12.01,-73.71 -13.54,-73.58 -14.42,-72.60 -15.30,-71.62 -15.08,-68.63 -14.87,-65.64 -14.37,-60.64 -13.88,-55.64 -12.73,-49.84 -11.57,-44.04 -9.55,-35.74 -7.52,-27.44 -5.49,-20.01 -3.45,-12.57 -2.81,-10.12 -2.18,-7.67 -1.28,-5.35 -0.38,-3.03 0.40,-2.11 1.19,-1.19 1.31,-1.03 1.44,-0.87 1.52,-0.68 1.61,-0.50 1.64,-0.30 1.68,-0.10 1.67,0.10 1.66,0.30 1.60,0.49 1.54,0.69 1.43,0.86 1.32,1.04 1.18,1.18 1.04,1.32 0.86,1.43 0.69,1.54 0.49,1.60 0.30,1.66 0.10,1.67 -0.10,1.68 -0.30,1.64 -0.50,1.61 -0.68,1.52 -0.87,1.44 -1.03,1.31 -1.19,1.19 -1.19,1.19 L -1.19,1.19 Z"></path></g><g transform="translate(1416 576) rotate(0 -2 5)" stroke="none"><path fill="#1e1e1e" d="M 1.94,0.83 Q 1.94,0.83 0.98,2.80 0.02,4.77 -1.04,7.74 -2.10,10.72 -2.26,11.00 -2.43,11.28 -2.68,11.50 -2.92,11.72 -3.23,11.84 -3.53,11.97 -3.86,11.99 -4.18,12.01 -4.50,11.93 -4.82,11.85 -5.09,11.67 -5.37,11.49 -5.57,11.23 -5.77,10.97 -5.88,10.66 -5.99,10.35 -6.00,10.03 -6.00,9.70 -5.90,9.38 -5.80,9.07 -5.61,8.81 -5.41,8.54 -5.14,8.36 -4.87,8.17 -4.56,8.07 -4.24,7.98 -3.92,7.99 -3.59,8.01 -3.28,8.12 -2.98,8.24 -2.72,8.45 -2.47,8.66 -2.30,8.94 -2.12,9.22 -2.05,9.54 -1.97,9.85 -2.00,10.18 -2.03,10.51 -2.17,10.81 -2.30,11.11 -2.52,11.35 -2.74,11.59 -3.03,11.75 -3.32,11.91 -3.64,11.97 -3.96,12.02 -4.29,11.98 -4.61,11.93 -4.91,11.78 -5.20,11.63 -5.43,11.39 -5.66,11.16 -5.80,10.86 -5.94,10.57 -5.98,10.24 -6.02,9.92 -5.96,9.59 -5.89,9.27 -5.89,9.27 -5.89,9.27 -4.68,6.27 -3.47,3.27 -2.70,1.22 -1.94,-0.83 -1.81,-1.05 -1.68,-1.27 -1.51,-1.45 -1.33,-1.64 -1.11,-1.77 -0.90,-1.91 -0.66,-1.99 -0.41,-2.07 -0.16,-2.09 0.08,-2.11 0.34,-2.07 0.59,-2.03 0.82,-1.93 1.06,-1.83 1.26,-1.67 1.46,-1.52 1.63,-1.32 1.79,-1.12 1.89,-0.89 2.00,-0.66 2.05,-0.41 2.10,-0.16 2.09,0.08 2.08,0.34 2.01,0.58 1.94,0.83 1.94,0.83 L 1.94,0.83 Z"></path></g><g transform="translate(1403 621) rotate(0 -1 8.5)" stroke="none"><path fill="#1e1e1e" d="M 2.22,0 Q 2.22,0 2.24,1.43 2.26,2.87 2.37,4.77 2.47,6.67 1.80,8.39 1.13,10.11 0.83,12.00 0.54,13.88 0.34,15.56 0.15,17.23 0.06,17.57 -0.03,17.90 -0.22,18.19 -0.42,18.48 -0.70,18.70 -0.98,18.91 -1.31,19.02 -1.64,19.13 -1.99,19.13 -2.34,19.13 -2.68,19.02 -3.01,18.91 -3.29,18.70 -3.57,18.49 -3.76,18.20 -3.96,17.91 -4.06,17.57 -4.15,17.23 -4.13,16.88 -4.11,16.53 -3.98,16.20 -3.85,15.88 -3.63,15.61 -3.40,15.34 -3.10,15.16 -2.80,14.98 -2.46,14.91 -2.11,14.83 -1.77,14.87 -1.42,14.91 -1.10,15.05 -0.78,15.20 -0.52,15.44 -0.27,15.68 -0.11,15.99 0.05,16.30 0.11,16.65 0.16,16.99 0.11,17.34 0.05,17.69 -0.10,18.00 -0.27,18.31 -0.52,18.55 -0.78,18.79 -1.10,18.94 -1.41,19.08 -1.76,19.12 -2.11,19.16 -2.45,19.08 -2.80,19.01 -3.10,18.83 -3.40,18.65 -3.62,18.38 -3.85,18.11 -3.98,17.79 -4.11,17.46 -4.13,17.11 -4.15,16.76 -4.15,16.76 -4.15,16.76 -3.98,15.09 -3.81,13.41 -3.14,9.95 -2.47,6.49 -2.37,4.68 -2.26,2.87 -2.24,1.43 -2.22,0 -2.19,-0.26 -2.15,-0.53 -2.06,-0.78 -1.96,-1.03 -1.81,-1.25 -1.66,-1.47 -1.46,-1.65 -1.26,-1.83 -1.02,-1.95 -0.78,-2.07 -0.52,-2.14 -0.26,-2.20 0.00,-2.20 0.26,-2.20 0.52,-2.14 0.78,-2.07 1.02,-1.95 1.26,-1.83 1.46,-1.65 1.66,-1.47 1.81,-1.25 1.96,-1.03 2.06,-0.78 2.15,-0.53 2.19,-0.26 2.22,0.00 2.22,0.00 L 2.22,0 Z"></path></g><g transform="translate(1395 653) rotate(0 -1.5 7.5)" stroke="none"><path fill="#1e1e1e" d="M 2.18,0.31 Q 2.18,0.31 1.80,2.31 1.42,4.30 1.20,6.53 0.99,8.76 0.33,10.38 -0.31,11.99 -0.62,13.74 -0.93,15.49 -1.06,15.81 -1.20,16.12 -1.42,16.38 -1.65,16.64 -1.95,16.81 -2.25,16.98 -2.58,17.05 -2.92,17.12 -3.26,17.07 -3.60,17.03 -3.91,16.88 -4.22,16.73 -4.46,16.49 -4.71,16.25 -4.86,15.94 -5.02,15.64 -5.07,15.30 -5.12,14.96 -5.06,14.62 -4.99,14.28 -4.83,13.98 -4.66,13.68 -4.41,13.45 -4.15,13.21 -3.84,13.08 -3.52,12.94 -3.18,12.91 -2.84,12.88 -2.51,12.96 -2.17,13.04 -1.88,13.22 -1.59,13.40 -1.37,13.67 -1.15,13.93 -1.03,14.26 -0.91,14.58 -0.90,14.92 -0.89,15.26 -0.99,15.59 -1.08,15.92 -1.28,16.20 -1.48,16.48 -1.76,16.69 -2.04,16.89 -2.36,16.99 -2.69,17.10 -3.03,17.09 -3.38,17.08 -3.70,16.97 -4.03,16.85 -4.29,16.64 -4.56,16.43 -4.75,16.14 -4.94,15.85 -5.02,15.52 -5.11,15.18 -5.09,14.84 -5.06,14.50 -5.06,14.50 -5.06,14.50 -4.44,12.38 -3.83,10.27 -3.23,9.36 -2.63,8.45 -2.60,6.09 -2.57,3.74 -2.37,1.71 -2.18,-0.31 -2.11,-0.56 -2.04,-0.82 -1.91,-1.05 -1.78,-1.28 -1.60,-1.48 -1.42,-1.67 -1.20,-1.82 -0.98,-1.97 -0.73,-2.06 -0.48,-2.15 -0.21,-2.17 0.04,-2.20 0.30,-2.16 0.57,-2.12 0.81,-2.02 1.06,-1.92 1.28,-1.77 1.49,-1.61 1.66,-1.41 1.83,-1.21 1.95,-0.97 2.07,-0.73 2.13,-0.47 2.19,-0.21 2.18,0.04 2.18,0.31 2.18,0.31 L 2.18,0.31 Z"></path></g><g transform="translate(1391 674) rotate(0 -3 11.5)" stroke="none"><path fill="#1e1e1e" d="M 2.16,0.48 Q 2.16,0.48 1.47,3.04 0.78,5.60 -0.42,9.33 -1.63,13.06 -2.11,14.88 -2.58,16.69 -3.03,18.15 -3.48,19.62 -3.73,21.44 -3.97,23.27 -4.07,23.58 -4.16,23.90 -4.36,24.17 -4.55,24.44 -4.82,24.63 -5.08,24.82 -5.40,24.92 -5.72,25.02 -6.05,25.01 -6.38,25.00 -6.69,24.89 -7.00,24.77 -7.25,24.57 -7.51,24.36 -7.69,24.08 -7.87,23.81 -7.95,23.48 -8.03,23.16 -8.00,22.84 -7.98,22.51 -7.85,22.20 -7.72,21.90 -7.50,21.65 -7.28,21.41 -6.99,21.24 -6.70,21.08 -6.38,21.02 -6.05,20.95 -5.73,21.00 -5.40,21.04 -5.10,21.19 -4.81,21.33 -4.57,21.57 -4.34,21.80 -4.19,22.10 -4.04,22.39 -4.00,22.72 -3.95,23.05 -4.02,23.37 -4.08,23.70 -4.24,23.98 -4.40,24.27 -4.65,24.49 -4.89,24.71 -5.20,24.84 -5.50,24.98 -5.83,25.00 -6.16,25.03 -6.48,24.95 -6.80,24.87 -7.08,24.69 -7.36,24.52 -7.56,24.26 -7.77,24.00 -7.88,23.69 -8.00,23.38 -8.01,23.05 -8.02,22.72 -8.02,22.72 -8.02,22.72 -7.54,20.53 -7.07,18.34 -6.54,17.08 -6.02,15.82 -5.55,13.92 -5.08,12.03 -4.08,8.38 -3.08,4.74 -2.62,2.13 -2.16,-0.48 -2.07,-0.73 -1.98,-0.98 -1.83,-1.20 -1.69,-1.43 -1.49,-1.61 -1.30,-1.79 -1.06,-1.92 -0.83,-2.05 -0.57,-2.12 -0.31,-2.19 -0.05,-2.19 0.21,-2.20 0.47,-2.14 0.73,-2.08 0.97,-1.97 1.21,-1.85 1.42,-1.67 1.62,-1.50 1.78,-1.29 1.93,-1.07 2.03,-0.82 2.13,-0.57 2.17,-0.31 2.21,-0.05 2.18,0.21 2.16,0.48 2.16,0.48 L 2.16,0.48 Z"></path></g><g transform="translate(1383 705) rotate(0 0 3)" stroke="none"><path fill="#1e1e1e" d="M 2.19,0 Q 2.19,0 2.25,1.15 2.30,2.3 2.35,3.36 2.40,4.42 2.37,4.71 2.33,5.00 2.23,5.27 2.13,5.54 1.96,5.78 1.80,6.02 1.58,6.21 1.36,6.40 1.11,6.54 0.85,6.67 0.57,6.74 0.29,6.81 -0.00,6.81 -0.29,6.81 -0.57,6.74 -0.85,6.67 -1.11,6.54 -1.36,6.40 -1.58,6.21 -1.80,6.02 -1.96,5.78 -2.13,5.54 -2.23,5.27 -2.33,5.00 -2.37,4.71 -2.40,4.42 -2.22,2.21 -2.04,0 -1.99,-0.32 -1.93,-0.65 -1.78,-0.94 -1.62,-1.23 -1.38,-1.46 -1.14,-1.69 -0.84,-1.83 -0.54,-1.97 -0.21,-2.00 0.11,-2.04 0.43,-1.97 0.75,-1.90 1.04,-1.72 1.32,-1.55 1.53,-1.30 1.75,-1.05 1.87,-0.74 1.99,-0.43 2.01,-0.10 2.03,0.22 1.94,0.54 1.85,0.85 1.67,1.13 1.48,1.40 1.22,1.60 0.95,1.80 0.64,1.91 0.33,2.01 -0.00,2.01 -0.33,2.01 -0.64,1.91 -0.95,1.80 -1.22,1.60 -1.48,1.40 -1.67,1.13 -1.85,0.85 -1.94,0.53 -2.03,0.22 -2.01,-0.10 -1.99,-0.44 -1.87,-0.74 -1.75,-1.05 -1.53,-1.30 -1.32,-1.55 -1.04,-1.72 -0.75,-1.90 -0.43,-1.97 -0.11,-2.04 0.21,-2.00 0.54,-1.97 0.84,-1.83 1.14,-1.69 1.38,-1.46 1.62,-1.23 1.78,-0.94 1.93,-0.65 1.99,-0.32 2.04,0.00 2.04,0.00 2.04,0 2.22,2.21 2.40,4.42 2.37,4.71 2.33,5.00 2.23,5.27 2.13,5.54 1.96,5.78 1.80,6.02 1.58,6.21 1.36,6.40 1.11,6.54 0.85,6.67 0.57,6.74 0.29,6.81 0.00,6.81 -0.29,6.81 -0.57,6.74 -0.85,6.67 -1.11,6.54 -1.36,6.40 -1.58,6.21 -1.80,6.02 -1.96,5.78 -2.13,5.54 -2.23,5.27 -2.33,5.00 -2.37,4.71 -2.40,4.42 -2.35,3.36 -2.30,2.3 -2.25,1.15 -2.19,0 -2.16,-0.26 -2.13,-0.52 -2.03,-0.77 -1.94,-1.02 -1.79,-1.23 -1.64,-1.45 -1.44,-1.63 -1.24,-1.80 -1.01,-1.93 -0.77,-2.05 -0.52,-2.11 -0.26,-2.18 0.00,-2.18 0.26,-2.18 0.52,-2.11 0.77,-2.05 1.01,-1.93 1.24,-1.80 1.44,-1.63 1.64,-1.45 1.79,-1.23 1.94,-1.02 2.03,-0.77 2.13,-0.52 2.16,-0.26 2.19,0.00 2.19,0.00 L 2.19,0 Z"></path></g><g transform="translate(1464 580) rotate(0 0.00004999999998744897 0.00004999999998744897)" stroke="none"><path fill="#1e1e1e" d="M 1.57,-1.57 Q 1.57,-1.57 1.77,-1.27 1.98,-0.98 2.09,-0.64 2.20,-0.29 2.19,0.05 2.18,0.41 2.05,0.75 1.93,1.09 1.70,1.37 1.48,1.65 1.18,1.84 0.87,2.04 0.52,2.12 0.18,2.21 -0.17,2.18 -0.53,2.15 -0.86,2.01 -1.19,1.87 -1.46,1.63 -1.73,1.39 -1.90,1.07 -2.08,0.76 -2.15,0.41 -2.21,0.05 -2.17,-0.29 -2.12,-0.65 -1.96,-0.97 -1.80,-1.29 -1.54,-1.54 -1.29,-1.80 -0.97,-1.96 -0.65,-2.12 -0.29,-2.17 0.06,-2.21 0.41,-2.15 0.76,-2.08 1.07,-1.90 1.39,-1.73 1.63,-1.46 1.87,-1.19 2.01,-0.86 2.15,-0.53 2.18,-0.17 2.21,0.18 2.12,0.52 2.03,0.87 1.84,1.18 1.65,1.48 1.37,1.70 1.09,1.93 0.75,2.05 0.41,2.18 0.05,2.19 -0.30,2.20 -0.64,2.09 -0.98,1.98 -1.27,1.77 -1.57,1.56 -1.57,1.57 -1.57,1.57 -1.73,1.35 -1.90,1.14 -2.01,0.90 -2.12,0.66 -2.16,0.39 -2.21,0.13 -2.20,-0.13 -2.18,-0.40 -2.10,-0.65 -2.02,-0.91 -1.88,-1.14 -1.74,-1.36 -1.55,-1.55 -1.36,-1.74 -1.14,-1.88 -0.91,-2.02 -0.65,-2.10 -0.40,-2.18 -0.13,-2.20 0.13,-2.21 0.39,-2.16 0.66,-2.12 0.90,-2.01 1.14,-1.90 1.35,-1.73 1.57,-1.57 1.57,-1.57 L 1.57,-1.57 Z"></path></g><g transform="translate(1466 578) rotate(0 7.5 26)" stroke="none"><path fill="#1e1e1e" d="M 1.81,0 Q 1.81,0 1.83,1.72 1.85,3.44 1.89,5.04 1.93,6.63 2.69,10.28 3.44,13.93 4.89,18.97 6.33,24.01 9.21,31.89 12.10,39.76 14.24,45.62 16.39,51.48 16.44,51.71 16.48,51.95 16.45,52.19 16.42,52.43 16.31,52.64 16.21,52.86 16.04,53.03 15.87,53.20 15.65,53.31 15.44,53.42 15.20,53.45 14.96,53.48 14.72,53.44 14.49,53.39 14.28,53.28 14.07,53.16 13.91,52.98 13.74,52.80 13.65,52.58 13.55,52.36 13.53,52.12 13.51,51.88 13.57,51.65 13.62,51.41 13.75,51.21 13.88,51.01 14.07,50.85 14.26,50.70 14.48,50.62 14.71,50.53 14.95,50.53 15.19,50.52 15.42,50.59 15.65,50.66 15.85,50.80 16.04,50.94 16.18,51.13 16.33,51.33 16.40,51.56 16.47,51.79 16.46,52.03 16.46,52.27 16.38,52.50 16.29,52.72 16.14,52.91 15.99,53.10 15.79,53.23 15.59,53.36 15.36,53.42 15.12,53.48 14.88,53.46 14.64,53.44 14.42,53.35 14.20,53.25 14.02,53.09 13.84,52.93 13.72,52.72 13.60,52.51 13.60,52.51 13.60,52.51 11.39,46.68 9.19,40.84 6.18,32.90 3.18,24.95 1.59,19.83 0.00,14.71 -0.96,10.68 -1.93,6.65 -1.89,5.05 -1.85,3.44 -1.83,1.72 -1.81,0 -1.78,-0.21 -1.76,-0.43 -1.68,-0.63 -1.60,-0.84 -1.48,-1.02 -1.35,-1.20 -1.19,-1.34 -1.03,-1.49 -0.83,-1.59 -0.64,-1.69 -0.43,-1.74 -0.21,-1.80 0.00,-1.80 0.21,-1.80 0.43,-1.74 0.64,-1.69 0.83,-1.59 1.03,-1.49 1.19,-1.34 1.35,-1.20 1.48,-1.02 1.60,-0.84 1.68,-0.63 1.76,-0.43 1.78,-0.21 1.81,0.00 1.81,0.00 L 1.81,0 Z"></path></g><g transform="translate(1499 664) rotate(0 0 1.5)" stroke="none"><path fill="#1e1e1e" d="M 2.12,-0.66 Q 2.12,-0.66 2.15,-0.13 2.18,0.40 1.96,0.88 1.74,1.36 1.32,1.69 0.91,2.02 0.38,2.12 -0.13,2.21 -0.64,2.05 -1.14,1.90 -1.52,1.52 -1.90,1.14 -2.05,0.64 -2.21,0.13 -2.12,-0.38 -2.02,-0.91 -1.69,-1.32 -1.36,-1.74 -0.88,-1.96 -0.39,-2.18 0.13,-2.15 0.66,-2.11 1.11,-1.84 1.57,-1.56 1.84,-1.11 L 2.12,-0.66 Z"></path></g><g transform="translate(1499 676) rotate(0 -0.5 4)" stroke="none"><path fill="#1e1e1e" d="M 2.16,0.54 Q 2.16,0.54 1.92,1.70 1.68,2.86 1.90,4.74 2.12,6.62 2.04,6.91 1.96,7.20 1.81,7.47 1.66,7.73 1.45,7.95 1.24,8.17 0.99,8.33 0.73,8.49 0.45,8.59 0.16,8.68 -0.13,8.71 -0.43,8.74 -0.73,8.69 -1.03,8.64 -1.31,8.53 -1.59,8.41 -1.83,8.23 -2.07,8.05 -2.26,7.81 -2.45,7.58 -2.58,7.31 -2.72,7.04 -2.78,6.74 -2.84,6.45 -2.83,6.14 -2.82,5.84 -2.48,2.86 -2.15,-0.12 -2.07,-0.46 -2.00,-0.80 -1.82,-1.09 -1.63,-1.39 -1.37,-1.62 -1.10,-1.84 -0.78,-1.97 -0.45,-2.10 -0.11,-2.12 0.23,-2.14 0.57,-2.04 0.90,-1.95 1.19,-1.75 1.48,-1.56 1.69,-1.28 1.90,-1.00 2.01,-0.67 2.12,-0.34 2.12,0.00 2.12,0.35 2.01,0.68 1.90,1.01 1.69,1.28 1.47,1.56 1.19,1.76 0.90,1.95 0.56,2.04 0.22,2.14 -0.11,2.12 -0.46,2.10 -0.79,1.97 -1.11,1.84 -1.37,1.61 -1.64,1.39 -1.82,1.09 -2.00,0.79 -2.07,0.45 -2.15,0.11 -2.11,-0.23 -2.07,-0.58 -1.92,-0.89 -1.78,-1.21 -1.54,-1.46 -1.30,-1.71 -0.99,-1.88 -0.68,-2.04 -0.34,-2.09 0.00,-2.15 0.34,-2.09 0.69,-2.04 0.99,-1.87 1.30,-1.71 1.54,-1.45 1.78,-1.20 1.93,-0.88 2.07,-0.57 2.11,-0.22 2.15,0.12 2.15,0.12 2.15,0.12 2.13,3.37 2.12,6.62 2.04,6.91 1.96,7.20 1.81,7.46 1.66,7.73 1.45,7.95 1.24,8.16 0.99,8.33 0.73,8.49 0.45,8.59 0.16,8.68 -0.13,8.71 -0.43,8.74 -0.73,8.69 -1.03,8.64 -1.31,8.53 -1.59,8.41 -1.83,8.23 -2.07,8.05 -2.26,7.81 -2.45,7.58 -2.58,7.31 -2.72,7.04 -2.78,6.74 -2.84,6.45 -2.83,6.14 -2.82,5.84 -2.83,3.79 -2.83,1.73 -2.50,0.59 -2.16,-0.54 -2.07,-0.79 -1.97,-1.04 -1.82,-1.26 -1.66,-1.48 -1.46,-1.66 -1.26,-1.84 -1.02,-1.96 -0.78,-2.09 -0.52,-2.15 -0.26,-2.21 0.00,-2.21 0.27,-2.21 0.53,-2.15 0.79,-2.08 1.03,-1.96 1.27,-1.83 1.47,-1.65 1.67,-1.47 1.83,-1.25 1.98,-1.03 2.07,-0.77 2.17,-0.52 2.20,-0.25 2.23,0.00 2.20,0.27 2.16,0.54 2.16,0.54 L 2.16,0.54 Z"></path></g><g transform="translate(1466 682) rotate(0 -6 -1.5)" stroke="none"><path fill="#1e1e1e" d="M -0.75,2.25 Q -0.75,2.25 -2.46,1.62 -4.16,0.99 -5.36,0.43 -6.56,-0.11 -9.37,-0.28 -12.18,-0.45 -12.59,-0.55 -12.99,-0.65 -13.34,-0.87 -13.68,-1.09 -13.94,-1.41 -14.21,-1.72 -14.35,-2.11 -14.50,-2.50 -14.51,-2.91 -14.52,-3.32 -14.40,-3.72 -14.29,-4.11 -14.05,-4.45 -13.81,-4.79 -13.48,-5.03 -13.14,-5.27 -12.75,-5.39 -12.36,-5.52 -11.94,-5.51 -11.53,-5.50 -11.14,-5.36 -10.76,-5.22 -10.43,-4.97 -10.11,-4.71 -9.88,-4.36 -9.66,-4.02 -9.56,-3.62 -9.46,-3.22 -9.49,-2.81 -9.52,-2.40 -9.68,-2.02 -9.84,-1.64 -10.11,-1.33 -10.38,-1.02 -10.74,-0.81 -11.10,-0.61 -11.50,-0.53 -11.91,-0.45 -12.32,-0.50 -12.73,-0.55 -13.10,-0.73 -13.47,-0.91 -13.76,-1.20 -14.06,-1.49 -14.24,-1.86 -14.43,-2.23 -14.49,-2.64 -14.54,-3.05 -14.47,-3.45 -14.39,-3.86 -14.19,-4.22 -13.99,-4.58 -13.69,-4.86 -13.38,-5.13 -13.00,-5.30 -12.63,-5.46 -12.22,-5.50 -11.81,-5.54 -11.81,-5.54 -11.81,-5.54 -9.39,-5.30 -6.97,-5.06 -4.85,-4.17 -2.73,-3.29 -0.98,-2.77 0.75,-2.25 1.01,-2.13 1.27,-2.01 1.49,-1.83 1.71,-1.65 1.88,-1.42 2.06,-1.19 2.17,-0.92 2.28,-0.66 2.33,-0.38 2.38,-0.09 2.35,0.18 2.33,0.47 2.24,0.74 2.15,1.02 1.99,1.26 1.84,1.50 1.63,1.70 1.43,1.90 1.18,2.04 0.93,2.19 0.65,2.27 0.38,2.35 0.09,2.36 -0.19,2.37 -0.47,2.31 -0.75,2.25 -0.75,2.25 L -0.75,2.25 Z"></path></g><g transform="translate(1391 674) rotate(0 -45.5 23.5)" stroke="none"><path fill="#1e1e1e" d="M -0.22,1.59 Q -0.22,1.59 -4.24,0.98 -8.26,0.36 -10.24,0.12 -12.23,-0.12 -13.90,-0.16 -15.56,-0.20 -18.84,-0.29 -22.11,-0.38 -26.00,0.13 -29.88,0.64 -33.84,1.42 -37.80,2.21 -42.89,3.67 -47.99,5.13 -53.06,6.62 -58.12,8.10 -64.65,9.32 -71.19,10.54 -75.85,12.17 -80.51,13.81 -82.99,15.01 -85.48,16.22 -86.64,18.28 -87.80,20.33 -88.25,21.77 -88.71,23.22 -88.60,24.31 -88.50,25.41 -86.97,26.82 -85.44,28.24 -83.12,29.79 -80.81,31.33 -78.35,32.90 -75.90,34.47 -71.98,36.86 -68.07,39.26 -64.71,41.13 -61.34,43.01 -58.77,44.38 -56.20,45.75 -53.55,46.28 -50.90,46.81 -48.38,47.06 -45.86,47.31 -40.15,44.59 -34.44,41.88 -29.99,39.83 -25.55,37.79 -25.34,37.73 -25.14,37.67 -24.92,37.69 -24.71,37.70 -24.51,37.78 -24.31,37.86 -24.14,38.00 -23.98,38.14 -23.87,38.32 -23.76,38.51 -23.71,38.72 -23.67,38.93 -23.69,39.14 -23.72,39.35 -23.81,39.55 -23.90,39.74 -24.04,39.90 -24.19,40.05 -24.38,40.15 -24.57,40.25 -24.78,40.29 -25.00,40.32 -25.21,40.29 -25.42,40.25 -25.61,40.15 -25.80,40.05 -25.95,39.89 -26.10,39.74 -26.19,39.54 -26.28,39.35 -26.30,39.13 -26.32,38.92 -26.27,38.71 -26.23,38.50 -26.12,38.32 -26.01,38.13 -25.84,37.99 -25.68,37.86 -25.48,37.78 -25.28,37.70 -25.06,37.69 -24.85,37.67 -24.64,37.73 -24.44,37.79 -24.26,37.91 -24.08,38.03 -23.95,38.20 -23.82,38.37 -23.75,38.58 -23.68,38.78 -23.68,39.00 -23.68,39.21 -23.75,39.42 -23.82,39.62 -23.95,39.79 -24.08,39.96 -24.26,40.08 -24.44,40.20 -24.44,40.20 -24.44,40.20 -28.88,42.25 -33.32,44.30 -39.62,47.12 -45.93,49.95 -48.69,49.70 -51.45,49.46 -54.45,48.82 -57.45,48.18 -60.07,46.81 -62.69,45.44 -66.11,43.56 -69.54,41.68 -73.49,39.31 -77.44,36.93 -79.95,35.39 -82.47,33.85 -85.08,32.15 -87.70,30.45 -89.65,28.27 -91.60,26.09 -91.57,24.16 -91.54,22.22 -90.81,20.58 -90.07,18.95 -88.45,16.46 -86.83,13.98 -84.12,12.62 -81.40,11.26 -76.55,9.56 -71.69,7.87 -65.30,6.66 -58.90,5.46 -53.84,3.95 -48.77,2.44 -43.57,0.91 -38.37,-0.60 -34.33,-1.45 -30.29,-2.29 -26.18,-2.88 -22.08,-3.48 -18.72,-3.48 -15.37,-3.48 -13.61,-3.31 -11.86,-3.15 -9.84,-2.91 -7.83,-2.66 -3.80,-2.13 0.22,-1.59 0.41,-1.54 0.60,-1.49 0.77,-1.40 0.94,-1.30 1.08,-1.17 1.23,-1.04 1.33,-0.88 1.44,-0.71 1.50,-0.53 1.57,-0.35 1.59,-0.15 1.61,0.03 1.58,0.22 1.55,0.41 1.48,0.59 1.41,0.78 1.29,0.93 1.18,1.09 1.03,1.22 0.88,1.34 0.71,1.43 0.54,1.52 0.35,1.56 0.16,1.60 -0.03,1.60 -0.22,1.59 -0.22,1.59 L -0.22,1.59 Z"></path></g><g transform="translate(1432 692) rotate(0 20 -2)" stroke="none"><path fill="#1e1e1e" d="M 0,-1.86 Q 0,-1.86 2.01,-1.82 4.02,-1.77 5.45,-1.84 6.87,-1.91 12.79,-2.96 18.70,-4.02 24.82,-4.46 30.95,-4.90 35.41,-5.22 39.87,-5.54 40.12,-5.52 40.37,-5.50 40.60,-5.40 40.83,-5.30 41.01,-5.13 41.20,-4.96 41.32,-4.75 41.45,-4.53 41.49,-4.28 41.54,-4.04 41.51,-3.79 41.47,-3.54 41.36,-3.32 41.25,-3.09 41.07,-2.92 40.90,-2.74 40.67,-2.63 40.45,-2.52 40.20,-2.48 39.95,-2.45 39.71,-2.50 39.46,-2.54 39.24,-2.67 39.03,-2.79 38.86,-2.98 38.69,-3.16 38.59,-3.39 38.49,-3.62 38.47,-3.87 38.45,-4.12 38.51,-4.36 38.57,-4.61 38.71,-4.82 38.84,-5.03 39.04,-5.18 39.23,-5.34 39.47,-5.43 39.70,-5.51 39.95,-5.52 40.20,-5.53 40.44,-5.45 40.68,-5.38 40.89,-5.23 41.09,-5.09 41.23,-4.88 41.38,-4.68 41.45,-4.44 41.53,-4.20 41.52,-3.95 41.51,-3.70 41.43,-3.47 41.34,-3.23 41.18,-3.04 41.03,-2.84 40.82,-2.71 40.61,-2.57 40.36,-2.51 40.12,-2.45 40.12,-2.45 40.12,-2.45 35.67,-2.05 31.21,-1.64 25.28,-1.11 19.35,-0.57 13.12,0.66 6.89,1.91 5.45,1.84 4.02,1.77 2.01,1.82 0,1.86 -0.22,1.84 -0.44,1.81 -0.65,1.73 -0.86,1.65 -1.05,1.52 -1.23,1.39 -1.38,1.23 -1.53,1.06 -1.64,0.86 -1.74,0.66 -1.80,0.44 -1.85,0.22 -1.85,-0.00 -1.85,-0.22 -1.80,-0.44 -1.74,-0.66 -1.64,-0.86 -1.53,-1.06 -1.38,-1.23 -1.23,-1.39 -1.05,-1.52 -0.86,-1.65 -0.65,-1.73 -0.44,-1.81 -0.22,-1.84 0.00,-1.86 0.00,-1.86 L 0,-1.86 Z"></path></g><g transform="translate(1555 677) rotate(0 -32 18.5)" stroke="none"><path fill="#1e1e1e" d="M 1.61,-0.23 Q 1.61,-0.23 1.87,1.78 2.14,3.80 1.94,6.56 1.74,9.32 -0.15,13.27 -2.05,17.21 -5.26,20.39 -8.48,23.57 -11.64,25.51 -14.81,27.45 -18.86,28.59 -22.90,29.73 -26.26,30.74 -29.61,31.76 -32.41,33.03 -35.20,34.30 -37.06,34.93 -38.92,35.56 -40.85,36.10 -42.78,36.65 -45.16,36.87 -47.53,37.09 -50.25,37.17 -52.98,37.25 -55.50,37.56 -58.01,37.87 -61.45,38.23 -64.88,38.58 -65.14,38.55 -65.39,38.53 -65.63,38.43 -65.86,38.32 -66.05,38.15 -66.24,37.98 -66.37,37.75 -66.49,37.53 -66.54,37.27 -66.58,37.02 -66.54,36.77 -66.51,36.51 -66.39,36.28 -66.27,36.06 -66.09,35.88 -65.91,35.70 -65.68,35.58 -65.45,35.47 -65.19,35.44 -64.94,35.41 -64.68,35.46 -64.43,35.51 -64.21,35.64 -63.99,35.77 -63.82,35.96 -63.65,36.15 -63.55,36.39 -63.45,36.63 -63.43,36.88 -63.41,37.14 -63.48,37.39 -63.54,37.64 -63.68,37.85 -63.82,38.07 -64.03,38.23 -64.23,38.38 -64.47,38.47 -64.71,38.56 -64.97,38.56 -65.23,38.57 -65.47,38.49 -65.71,38.41 -65.92,38.26 -66.13,38.11 -66.28,37.90 -66.42,37.69 -66.50,37.44 -66.57,37.19 -66.56,36.94 -66.55,36.68 -66.46,36.44 -66.37,36.20 -66.21,36.00 -66.04,35.80 -65.82,35.67 -65.61,35.53 -65.36,35.47 -65.11,35.41 -65.11,35.41 -65.11,35.41 -61.73,35.28 -58.36,35.15 -55.72,34.80 -53.08,34.46 -50.44,34.35 -47.81,34.24 -45.68,34.02 -43.55,33.80 -41.66,33.30 -39.77,32.80 -38.04,32.32 -36.30,31.85 -33.36,30.51 -30.41,29.18 -27.02,28.13 -23.63,27.09 -19.93,26.08 -16.23,25.07 -13.34,23.30 -10.45,21.54 -7.54,18.71 -4.64,15.89 -2.94,12.46 -1.25,9.04 -1.12,6.64 -0.99,4.24 -1.30,2.23 -1.61,0.23 -1.61,0.03 -1.61,-0.16 -1.57,-0.35 -1.53,-0.54 -1.44,-0.72 -1.35,-0.89 -1.23,-1.04 -1.10,-1.19 -0.94,-1.31 -0.78,-1.42 -0.60,-1.49 -0.42,-1.57 -0.22,-1.59 -0.03,-1.62 0.16,-1.60 0.35,-1.58 0.54,-1.52 0.72,-1.45 0.88,-1.34 1.05,-1.24 1.18,-1.09 1.31,-0.95 1.41,-0.78 1.50,-0.60 1.56,-0.41 1.61,-0.22 1.61,-0.23 L 1.61,-0.23 Z"></path></g><g transform="translate(1100 25) rotate(0 0.00004999999998744897 0.00005000000000165983)" stroke="none"><path fill="#1e1e1e" d="M 1.57,-1.57 Q 1.57,-1.57 1.77,-1.27 1.98,-0.98 2.09,-0.64 2.20,-0.29 2.19,0.05 2.18,0.41 2.05,0.75 1.93,1.09 1.70,1.37 1.48,1.65 1.18,1.84 0.87,2.04 0.52,2.12 0.18,2.21 -0.17,2.18 -0.53,2.15 -0.86,2.01 -1.19,1.87 -1.46,1.63 -1.73,1.39 -1.90,1.07 -2.08,0.76 -2.15,0.41 -2.21,0.05 -2.17,-0.29 -2.12,-0.65 -1.96,-0.97 -1.80,-1.29 -1.54,-1.54 -1.29,-1.80 -0.97,-1.96 -0.65,-2.12 -0.29,-2.17 0.06,-2.21 0.41,-2.15 0.76,-2.08 1.07,-1.90 1.39,-1.73 1.63,-1.46 1.87,-1.19 2.01,-0.86 2.15,-0.53 2.18,-0.17 2.21,0.18 2.12,0.52 2.03,0.87 1.84,1.18 1.65,1.48 1.37,1.70 1.09,1.93 0.75,2.05 0.41,2.18 0.05,2.19 -0.30,2.20 -0.64,2.09 -0.98,1.98 -1.27,1.77 -1.57,1.56 -1.57,1.57 -1.57,1.57 -1.73,1.35 -1.90,1.14 -2.01,0.90 -2.12,0.66 -2.16,0.39 -2.21,0.13 -2.20,-0.13 -2.18,-0.40 -2.10,-0.65 -2.02,-0.91 -1.88,-1.14 -1.74,-1.36 -1.55,-1.55 -1.36,-1.74 -1.14,-1.88 -0.91,-2.02 -0.65,-2.10 -0.40,-2.18 -0.13,-2.20 0.13,-2.21 0.39,-2.16 0.66,-2.12 0.90,-2.01 1.14,-1.90 1.35,-1.73 1.57,-1.57 1.57,-1.57 L 1.57,-1.57 Z"></path></g><g transform="translate(128 10) rotate(0 0.00004999999998744897 0.00005000000000165983)" stroke="none"><path fill="#1e1e1e" d="M 1.57,-1.57 Q 1.57,-1.57 1.77,-1.27 1.98,-0.98 2.09,-0.64 2.20,-0.29 2.19,0.05 2.18,0.41 2.05,0.75 1.93,1.09 1.70,1.37 1.48,1.65 1.18,1.84 0.87,2.04 0.52,2.12 0.18,2.21 -0.17,2.18 -0.53,2.15 -0.86,2.01 -1.19,1.87 -1.46,1.63 -1.73,1.39 -1.90,1.07 -2.08,0.76 -2.15,0.41 -2.21,0.05 -2.17,-0.29 -2.12,-0.65 -1.96,-0.97 -1.80,-1.29 -1.54,-1.54 -1.29,-1.80 -0.97,-1.96 -0.65,-2.12 -0.29,-2.17 0.06,-2.21 0.41,-2.15 0.76,-2.08 1.07,-1.90 1.39,-1.73 1.63,-1.46 1.87,-1.19 2.01,-0.86 2.15,-0.53 2.18,-0.17 2.21,0.18 2.12,0.52 2.03,0.87 1.84,1.18 1.65,1.48 1.37,1.70 1.09,1.93 0.75,2.05 0.41,2.18 0.05,2.19 -0.30,2.20 -0.64,2.09 -0.98,1.98 -1.27,1.77 -1.57,1.56 -1.57,1.57 -1.57,1.57 -1.73,1.35 -1.90,1.14 -2.01,0.90 -2.12,0.66 -2.16,0.39 -2.21,0.13 -2.20,-0.13 -2.18,-0.40 -2.10,-0.65 -2.02,-0.91 -1.88,-1.14 -1.74,-1.36 -1.55,-1.55 -1.36,-1.74 -1.14,-1.88 -0.91,-2.02 -0.65,-2.10 -0.40,-2.18 -0.13,-2.20 0.13,-2.21 0.39,-2.16 0.66,-2.12 0.90,-2.01 1.14,-1.90 1.35,-1.73 1.57,-1.57 1.57,-1.57 L 1.57,-1.57 Z"></path></g><g transform="translate(108 15) rotate(0 76.5 39)" stroke="none"><path fill="#1e1e1e" d="M 0.74,-1.37 Q 0.74,-1.37 4.46,0.66 8.18,2.70 12.68,5.62 17.18,8.54 23.16,13.56 29.14,18.59 39.05,24.67 48.95,30.75 64.68,39.97 80.41,49.19 95.64,55.66 110.88,62.14 121.96,66.33 133.05,70.53 138.60,72.31 144.15,74.09 146.79,74.84 149.43,75.60 151.40,76.14 153.37,76.69 153.57,76.78 153.77,76.87 153.93,77.03 154.08,77.18 154.19,77.37 154.29,77.57 154.32,77.79 154.36,78.00 154.32,78.22 154.28,78.44 154.18,78.63 154.07,78.83 153.91,78.98 153.75,79.13 153.55,79.22 153.35,79.31 153.13,79.33 152.91,79.35 152.70,79.30 152.48,79.26 152.29,79.14 152.11,79.03 151.96,78.86 151.82,78.69 151.74,78.48 151.66,78.28 151.65,78.06 151.64,77.84 151.70,77.63 151.76,77.41 151.89,77.23 152.01,77.05 152.19,76.92 152.37,76.79 152.58,76.72 152.78,76.65 153.00,76.65 153.22,76.65 153.43,76.73 153.64,76.80 153.82,76.93 153.99,77.07 154.11,77.25 154.23,77.43 154.29,77.65 154.35,77.86 154.34,78.08 154.32,78.30 154.24,78.50 154.16,78.71 154.01,78.87 153.87,79.04 153.68,79.15 153.49,79.26 153.27,79.31 153.06,79.35 152.84,79.33 152.62,79.30 152.62,79.30 152.62,79.30 150.66,78.73 148.70,78.15 146.02,77.39 143.33,76.62 137.72,74.83 132.10,73.04 120.96,68.83 109.82,64.62 94.43,58.08 79.03,51.55 63.27,42.33 47.50,33.11 37.42,26.93 27.34,20.75 21.48,15.86 15.61,10.97 11.19,8.15 6.76,5.34 3.01,3.35 -0.74,1.37 -0.89,1.26 -1.04,1.15 -1.17,1.01 -1.29,0.87 -1.38,0.70 -1.46,0.53 -1.50,0.35 -1.55,0.17 -1.55,-0.01 -1.54,-0.20 -1.50,-0.38 -1.45,-0.56 -1.36,-0.73 -1.27,-0.90 -1.14,-1.04 -1.02,-1.18 -0.86,-1.28 -0.71,-1.39 -0.53,-1.45 -0.35,-1.52 -0.17,-1.54 0.01,-1.56 0.20,-1.53 0.39,-1.51 0.56,-1.44 0.74,-1.37 0.74,-1.37 L 0.74,-1.37 Z"></path></g><g transform="translate(246 20) rotate(0 24.5 18)" stroke="none"><path fill="#1971c2" d="M 0.99,-1.48 Q 0.99,-1.48 3.54,0.29 6.09,2.07 9.75,4.56 13.41,7.06 16.98,9.58 20.56,12.10 23.82,14.63 27.08,17.16 29.89,19.39 32.70,21.62 35.92,24.31 39.13,26.99 41.37,29.01 43.61,31.03 45.05,31.73 46.49,32.44 48.11,33.47 49.73,34.50 49.95,34.65 50.17,34.81 50.33,35.03 50.49,35.25 50.57,35.50 50.65,35.76 50.64,36.03 50.64,36.30 50.54,36.56 50.45,36.81 50.28,37.02 50.12,37.23 49.89,37.38 49.66,37.52 49.40,37.59 49.14,37.66 48.87,37.64 48.60,37.62 48.35,37.51 48.10,37.41 47.90,37.23 47.70,37.05 47.57,36.81 47.43,36.58 47.38,36.31 47.33,36.05 47.36,35.78 47.40,35.51 47.52,35.27 47.63,35.03 47.82,34.84 48.01,34.64 48.26,34.52 48.50,34.40 48.76,34.36 49.03,34.33 49.30,34.38 49.56,34.43 49.80,34.56 50.03,34.69 50.22,34.89 50.40,35.09 50.50,35.34 50.61,35.58 50.64,35.85 50.66,36.12 50.60,36.38 50.53,36.65 50.39,36.88 50.24,37.10 50.03,37.27 49.82,37.44 49.57,37.54 49.32,37.63 49.05,37.64 48.78,37.65 48.52,37.57 48.26,37.49 48.26,37.49 48.26,37.49 46.63,36.27 45.00,35.05 43.40,34.06 41.80,33.07 39.58,31.09 37.37,29.12 34.16,26.48 30.96,23.84 28.14,21.65 25.32,19.46 22.08,17.01 18.85,14.56 15.26,12.11 11.68,9.66 7.96,7.24 4.25,4.82 1.63,3.15 -0.99,1.48 -1.15,1.34 -1.31,1.20 -1.44,1.03 -1.56,0.85 -1.64,0.65 -1.72,0.45 -1.75,0.24 -1.78,0.02 -1.76,-0.18 -1.74,-0.39 -1.66,-0.60 -1.59,-0.80 -1.47,-0.98 -1.35,-1.16 -1.19,-1.30 -1.03,-1.45 -0.84,-1.55 -0.66,-1.65 -0.45,-1.71 -0.24,-1.76 -0.02,-1.77 0.18,-1.77 0.39,-1.72 0.60,-1.68 0.79,-1.58 0.99,-1.48 0.99,-1.48 L 0.99,-1.48 Z"></path></g><g transform="translate(1356 690) rotate(0 -3 0)" stroke="none"><path d="M-6.04 0.05 C-6.04 0.05, -6.04 0.05, -6.04 0.05 M-6.04 0.05 C-6.04 0.05, -6.04 0.05, -6.04 0.05 M-1.08 0.33 C-0.92 0.25, -0.65 0.15, -0.41 -0.39 M-1.05 0.37 C-0.82 0.16, -0.64 -0.07, -0.37 -0.36" stroke="#a5d8ff" stroke-width="0.5" fill="none"></path><path fill="#1971c2" d="M 0,2.19 Q 0,2.19 -1.15,2.25 -2.3,2.30 -3.36,2.35 -4.42,2.40 -4.71,2.37 -5.00,2.33 -5.27,2.23 -5.54,2.13 -5.78,1.96 -6.02,1.80 -6.21,1.58 -6.40,1.36 -6.54,1.11 -6.67,0.85 -6.74,0.57 -6.81,0.29 -6.81,-0.00 -6.81,-0.29 -6.74,-0.57 -6.67,-0.85 -6.54,-1.11 -6.40,-1.36 -6.21,-1.58 -6.02,-1.80 -5.78,-1.96 -5.54,-2.13 -5.27,-2.23 -5.00,-2.33 -4.71,-2.37 -4.42,-2.40 -2.21,-2.22 0,-2.04 0.32,-1.99 0.65,-1.93 0.94,-1.78 1.23,-1.62 1.46,-1.38 1.69,-1.14 1.83,-0.84 1.97,-0.54 2.00,-0.21 2.04,0.11 1.97,0.43 1.90,0.75 1.72,1.04 1.55,1.32 1.30,1.53 1.05,1.75 0.74,1.87 0.43,1.99 0.10,2.01 -0.22,2.03 -0.54,1.94 -0.85,1.85 -1.13,1.67 -1.40,1.48 -1.60,1.22 -1.80,0.95 -1.91,0.64 -2.01,0.33 -2.01,-0.00 -2.01,-0.33 -1.91,-0.64 -1.80,-0.95 -1.60,-1.22 -1.40,-1.48 -1.13,-1.67 -0.85,-1.85 -0.53,-1.94 -0.22,-2.03 0.10,-2.01 0.44,-1.99 0.74,-1.87 1.05,-1.75 1.30,-1.53 1.55,-1.32 1.72,-1.04 1.90,-0.75 1.97,-0.43 2.04,-0.11 2.00,0.21 1.97,0.54 1.83,0.84 1.69,1.14 1.46,1.38 1.23,1.62 0.94,1.78 0.65,1.93 0.32,1.99 -0.00,2.04 -0.00,2.04 0,2.04 -2.21,2.22 -4.42,2.40 -4.71,2.37 -5.00,2.33 -5.27,2.23 -5.54,2.13 -5.78,1.96 -6.02,1.80 -6.21,1.58 -6.40,1.36 -6.54,1.11 -6.67,0.85 -6.74,0.57 -6.81,0.29 -6.81,0.00 -6.81,-0.29 -6.74,-0.57 -6.67,-0.85 -6.54,-1.11 -6.40,-1.36 -6.21,-1.58 -6.02,-1.80 -5.78,-1.96 -5.54,-2.13 -5.27,-2.23 -5.00,-2.33 -4.71,-2.37 -4.42,-2.40 -3.36,-2.35 -2.3,-2.30 -1.15,-2.25 0,-2.19 0.26,-2.16 0.52,-2.13 0.77,-2.03 1.02,-1.94 1.23,-1.79 1.45,-1.64 1.63,-1.44 1.80,-1.24 1.93,-1.01 2.05,-0.77 2.11,-0.52 2.18,-0.26 2.18,0.00 2.18,0.26 2.11,0.52 2.05,0.77 1.93,1.01 1.80,1.24 1.63,1.44 1.45,1.64 1.23,1.79 1.02,1.94 0.77,2.03 0.52,2.13 0.26,2.16 -0.00,2.19 -0.00,2.19 L 0,2.19 Z"></path></g><g transform="translate(1341 690) rotate(0 -1 1)" stroke="none"><path d="M-1.8 -0.24 C-1.8 -0.24, -1.8 -0.24, -1.8 -0.24 M-1.8 -0.24 C-1.8 -0.24, -1.8 -0.24, -1.8 -0.24" stroke="#a5d8ff" stroke-width="0.5" fill="none"></path><path fill="#1971c2" d="M 2.12,-0.66 Q 2.12,-0.66 2.15,-0.13 2.18,0.40 1.96,0.88 1.74,1.36 1.32,1.69 0.91,2.02 0.38,2.12 -0.13,2.21 -0.64,2.05 -1.14,1.90 -1.52,1.52 -1.90,1.14 -2.05,0.64 -2.21,0.13 -2.12,-0.38 -2.02,-0.91 -1.69,-1.32 -1.36,-1.74 -0.88,-1.96 -0.39,-2.18 0.13,-2.15 0.66,-2.11 1.11,-1.84 1.57,-1.56 1.84,-1.11 L 2.12,-0.66 Z"></path></g><g transform="translate(1337 693) rotate(0 3.5 3)" stroke="none"><path fill="#1971c2" d="M 1.82,-1.21 Q 1.82,-1.21 2.85,0.52 3.87,2.27 5.94,3.19 8.01,4.12 8.29,4.33 8.56,4.54 8.75,4.83 8.94,5.12 9.03,5.45 9.12,5.78 9.10,6.13 9.08,6.47 8.95,6.79 8.82,7.11 8.59,7.38 8.36,7.64 8.06,7.81 7.77,7.99 7.43,8.06 7.09,8.13 6.75,8.09 6.40,8.05 6.09,7.90 5.78,7.75 5.53,7.51 5.28,7.27 5.12,6.96 4.96,6.66 4.91,6.32 4.86,5.97 4.92,5.63 4.98,5.29 5.14,4.99 5.31,4.69 5.56,4.45 5.81,4.21 6.13,4.07 6.44,3.93 6.79,3.90 7.13,3.86 7.47,3.94 7.81,4.02 8.10,4.20 8.39,4.38 8.62,4.65 8.84,4.91 8.96,5.23 9.09,5.56 9.10,5.90 9.12,6.25 9.02,6.58 8.93,6.91 8.73,7.20 8.53,7.48 8.25,7.69 7.98,7.89 7.65,8.00 7.32,8.11 6.97,8.10 6.63,8.10 6.30,7.99 5.98,7.87 5.98,7.87 5.98,7.87 3.35,6.25 0.72,4.62 -0.55,2.92 -1.82,1.21 -1.94,0.98 -2.06,0.74 -2.12,0.48 -2.18,0.22 -2.18,-0.03 -2.17,-0.30 -2.10,-0.55 -2.04,-0.81 -1.91,-1.04 -1.78,-1.27 -1.60,-1.47 -1.42,-1.66 -1.20,-1.81 -0.98,-1.96 -0.74,-2.05 -0.49,-2.14 -0.22,-2.16 0.03,-2.19 0.29,-2.16 0.56,-2.12 0.80,-2.02 1.05,-1.92 1.26,-1.77 1.48,-1.62 1.65,-1.41 1.82,-1.21 1.82,-1.21 L 1.82,-1.21 Z"></path></g><g transform="translate(1354 692) rotate(0 1.5 0)" stroke="none"><path d="M0 0 C0 0, 0 0, 0 0 M0 0 C0 0, 0 0, 0 0" stroke="#a5d8ff" stroke-width="0.5" fill="none"></path><path fill="#1971c2" d="M 2.12,-0.66 Q 2.12,-0.66 2.15,-0.13 2.18,0.40 1.96,0.88 1.74,1.36 1.32,1.69 0.91,2.02 0.38,2.12 -0.13,2.21 -0.64,2.05 -1.14,1.90 -1.52,1.52 -1.90,1.14 -2.05,0.64 -2.21,0.13 -2.12,-0.38 -2.02,-0.91 -1.69,-1.32 -1.36,-1.74 -0.88,-1.96 -0.39,-2.18 0.13,-2.15 0.66,-2.11 1.11,-1.84 1.57,-1.56 1.84,-1.11 L 2.12,-0.66 Z"></path></g><g transform="translate(1372 692) rotate(0 13.5 -4)" stroke="none"><path fill="#1971c2" d="M -0.75,-1.88 Q -0.75,-1.88 0.67,-2.48 2.10,-3.08 3.90,-3.83 5.70,-4.59 6.91,-4.88 8.13,-5.16 10.38,-5.90 12.63,-6.63 16.69,-7.53 20.75,-8.43 23.66,-9.07 26.57,-9.71 26.85,-9.73 27.14,-9.76 27.42,-9.69 27.69,-9.62 27.93,-9.46 28.17,-9.31 28.35,-9.09 28.53,-8.86 28.63,-8.60 28.73,-8.33 28.74,-8.04 28.75,-7.76 28.66,-7.48 28.58,-7.21 28.41,-6.98 28.24,-6.75 28.01,-6.58 27.78,-6.41 27.51,-6.33 27.23,-6.24 26.95,-6.25 26.66,-6.26 26.39,-6.36 26.13,-6.46 25.90,-6.64 25.68,-6.82 25.53,-7.06 25.37,-7.30 25.30,-7.57 25.23,-7.85 25.26,-8.14 25.28,-8.42 25.39,-8.68 25.51,-8.95 25.70,-9.16 25.89,-9.37 26.14,-9.51 26.39,-9.65 26.67,-9.71 26.95,-9.76 27.23,-9.72 27.51,-9.68 27.77,-9.56 28.03,-9.43 28.23,-9.23 28.43,-9.03 28.56,-8.77 28.68,-8.51 28.72,-8.23 28.76,-7.95 28.71,-7.67 28.65,-7.39 28.51,-7.14 28.37,-6.89 28.16,-6.70 27.95,-6.51 27.68,-6.39 27.42,-6.28 27.42,-6.28 27.42,-6.28 24.55,-5.48 21.68,-4.68 17.93,-3.64 14.17,-2.60 10.82,-1.42 7.46,-0.24 5.55,0.26 3.64,0.78 2.19,1.33 0.75,1.88 0.51,1.94 0.28,2.00 0.03,2.01 -0.20,2.01 -0.44,1.96 -0.68,1.90 -0.90,1.79 -1.12,1.68 -1.30,1.53 -1.49,1.37 -1.63,1.17 -1.77,0.97 -1.86,0.74 -1.95,0.52 -1.99,0.27 -2.02,0.03 -2.00,-0.20 -1.97,-0.44 -1.89,-0.67 -1.81,-0.90 -1.67,-1.11 -1.54,-1.31 -1.36,-1.48 -1.18,-1.64 -0.96,-1.76 -0.75,-1.88 -0.75,-1.88 L -0.75,-1.88 Z"></path></g><g transform="translate(1406 683) rotate(0 14.5 0)" stroke="none"><path fill="#1971c2" d="M 0,-1.90 Q 0,-1.90 3.44,-1.82 6.89,-1.74 13.25,-1.68 19.60,-1.63 24.30,-1.58 29,-1.54 29.24,-1.50 29.49,-1.46 29.71,-1.34 29.93,-1.22 30.10,-1.04 30.27,-0.86 30.38,-0.63 30.48,-0.41 30.51,-0.16 30.54,0.08 30.48,0.32 30.43,0.57 30.30,0.78 30.17,0.99 29.98,1.16 29.79,1.32 29.56,1.41 29.33,1.50 29.08,1.52 28.83,1.53 28.59,1.46 28.35,1.40 28.14,1.26 27.93,1.12 27.78,0.92 27.63,0.72 27.55,0.48 27.47,0.24 27.47,-0.00 27.47,-0.25 27.55,-0.48 27.63,-0.72 27.78,-0.92 27.93,-1.12 28.14,-1.26 28.35,-1.40 28.59,-1.46 28.83,-1.53 29.08,-1.52 29.33,-1.50 29.56,-1.41 29.79,-1.32 29.98,-1.16 30.17,-0.99 30.30,-0.78 30.43,-0.57 30.48,-0.32 30.54,-0.08 30.51,0.16 30.48,0.41 30.38,0.64 30.27,0.86 30.10,1.04 29.93,1.22 29.71,1.34 29.49,1.46 29.24,1.50 28.99,1.54 28.99,1.54 29,1.54 24.30,1.58 19.60,1.63 13.25,1.68 6.89,1.74 3.44,1.82 0,1.90 -0.22,1.87 -0.45,1.85 -0.67,1.77 -0.88,1.68 -1.07,1.55 -1.26,1.42 -1.41,1.25 -1.56,1.08 -1.67,0.87 -1.78,0.67 -1.83,0.45 -1.89,0.22 -1.89,-0.00 -1.89,-0.22 -1.83,-0.45 -1.78,-0.67 -1.67,-0.87 -1.56,-1.08 -1.41,-1.25 -1.26,-1.42 -1.07,-1.55 -0.88,-1.68 -0.67,-1.77 -0.45,-1.85 -0.22,-1.87 0.00,-1.90 0.00,-1.90 L 0,-1.90 Z"></path></g><g transform="translate(1462 683) rotate(0 1 0)" stroke="none"><path d="M0 0 C0 0, 0 0, 0 0 M0 0 C0 0, 0 0, 0 0" stroke="#a5d8ff" stroke-width="0.5" fill="none"></path><path fill="#1971c2" d="M 2.12,-0.66 Q 2.12,-0.66 2.15,-0.13 2.18,0.40 1.96,0.88 1.74,1.36 1.32,1.69 0.91,2.02 0.38,2.12 -0.13,2.21 -0.64,2.05 -1.14,1.90 -1.52,1.52 -1.90,1.14 -2.05,0.64 -2.21,0.13 -2.12,-0.38 -2.02,-0.91 -1.69,-1.32 -1.36,-1.74 -0.88,-1.96 -0.39,-2.18 0.13,-2.15 0.66,-2.11 1.11,-1.84 1.57,-1.56 1.84,-1.11 L 2.12,-0.66 Z"></path></g><g transform="translate(1471 692) rotate(0 0.00005000000010113581 0.00004999999998744897)" stroke="none"><path fill="#1971c2" d="M 1.57,-1.57 Q 1.57,-1.57 1.77,-1.27 1.98,-0.98 2.09,-0.64 2.20,-0.29 2.19,0.05 2.18,0.41 2.05,0.75 1.93,1.09 1.70,1.37 1.48,1.65 1.18,1.84 0.87,2.04 0.52,2.12 0.18,2.21 -0.17,2.18 -0.53,2.15 -0.86,2.01 -1.19,1.87 -1.46,1.63 -1.73,1.39 -1.90,1.07 -2.08,0.76 -2.15,0.41 -2.21,0.05 -2.17,-0.29 -2.12,-0.65 -1.96,-0.97 -1.80,-1.29 -1.54,-1.54 -1.29,-1.80 -0.97,-1.96 -0.65,-2.12 -0.29,-2.17 0.06,-2.21 0.41,-2.15 0.76,-2.08 1.07,-1.90 1.39,-1.73 1.63,-1.46 1.87,-1.19 2.01,-0.86 2.15,-0.53 2.18,-0.17 2.21,0.18 2.12,0.52 2.03,0.87 1.84,1.18 1.65,1.48 1.37,1.70 1.09,1.93 0.75,2.05 0.41,2.18 0.05,2.19 -0.30,2.20 -0.64,2.09 -0.98,1.98 -1.27,1.77 -1.57,1.56 -1.57,1.57 -1.57,1.57 -1.73,1.35 -1.90,1.14 -2.01,0.90 -2.12,0.66 -2.16,0.39 -2.21,0.13 -2.20,-0.13 -2.18,-0.40 -2.10,-0.65 -2.02,-0.91 -1.88,-1.14 -1.74,-1.36 -1.55,-1.55 -1.36,-1.74 -1.14,-1.88 -0.91,-2.02 -0.65,-2.10 -0.40,-2.18 -0.13,-2.20 0.13,-2.21 0.39,-2.16 0.66,-2.12 0.90,-2.01 1.14,-1.90 1.35,-1.73 1.57,-1.57 1.57,-1.57 L 1.57,-1.57 Z"></path></g><g transform="translate(1418 695) rotate(0 -0.5 0)" stroke="none"><path d="M-1.23 0.26 C-1.23 0.26, -1.23 0.26, -1.23 0.26 M-1.23 0.26 C-1.23 0.26, -1.23 0.26, -1.23 0.26" stroke="#a5d8ff" stroke-width="0.5" fill="none"></path><path fill="#1971c2" d="M 2.12,-0.66 Q 2.12,-0.66 2.15,-0.13 2.18,0.40 1.96,0.88 1.74,1.36 1.32,1.69 0.91,2.02 0.38,2.12 -0.13,2.21 -0.64,2.05 -1.14,1.90 -1.52,1.52 -1.90,1.14 -2.05,0.64 -2.21,0.13 -2.12,-0.38 -2.02,-0.91 -1.69,-1.32 -1.36,-1.74 -0.88,-1.96 -0.39,-2.18 0.13,-2.15 0.66,-2.11 1.11,-1.84 1.57,-1.56 1.84,-1.11 L 2.12,-0.66 Z"></path></g><g transform="translate(1482 687) rotate(0 2 0)" stroke="none"><path d="M0 0 C0 0, 0 0, 0 0 M0 0 C0 0, 0 0, 0 0" stroke="#a5d8ff" stroke-width="0.5" fill="none"></path><path fill="#1971c2" d="M 0,-2.32 Q 0,-2.32 0,-2.36 0,-2.41 0.28,-2.37 0.57,-2.34 0.84,-2.23 1.12,-2.13 1.35,-1.96 1.59,-1.80 1.79,-1.58 1.98,-1.36 2.11,-1.11 2.25,-0.85 2.32,-0.57 2.39,-0.29 2.39,0.00 2.39,0.29 2.32,0.57 2.25,0.85 2.11,1.11 1.98,1.36 1.79,1.58 1.59,1.80 1.35,1.96 1.12,2.13 0.84,2.23 0.57,2.34 0.28,2.37 -0.00,2.41 -0.38,2.34 -0.76,2.28 -1.11,2.10 -1.45,1.91 -1.72,1.63 -1.99,1.35 -2.15,0.99 -2.32,0.64 -2.36,0.25 -2.40,-0.13 -2.32,-0.51 -2.23,-0.89 -2.03,-1.22 -1.83,-1.56 -1.53,-1.81 -1.24,-2.06 -0.88,-2.20 -0.51,-2.35 -0.12,-2.37 0.26,-2.39 0.63,-2.29 1.01,-2.18 1.33,-1.96 1.65,-1.74 1.89,-1.43 2.12,-1.12 2.25,-0.75 2.37,-0.38 2.37,0.00 2.37,0.39 2.25,0.75 2.12,1.12 1.89,1.43 1.65,1.75 1.33,1.96 1.01,2.18 0.63,2.29 0.26,2.39 -0.12,2.37 -0.51,2.35 -0.88,2.20 -1.24,2.06 -1.54,1.81 -1.83,1.56 -2.03,1.22 -2.23,0.89 -2.32,0.51 -2.40,0.12 -2.36,-0.25 -2.32,-0.64 -2.15,-0.99 -1.99,-1.35 -1.72,-1.63 -1.45,-1.91 -1.11,-2.10 -0.76,-2.28 -0.38,-2.34 0.00,-2.41 0.00,-2.41 -0.00,-2.41 0.28,-2.37 0.57,-2.34 0.84,-2.23 1.12,-2.13 1.35,-1.96 1.59,-1.80 1.79,-1.58 1.98,-1.36 2.11,-1.11 2.25,-0.85 2.32,-0.57 2.39,-0.29 2.39,-0.00 2.39,0.29 2.32,0.57 2.25,0.85 2.11,1.11 1.98,1.36 1.79,1.58 1.59,1.80 1.35,1.96 1.12,2.13 0.84,2.23 0.57,2.34 0.28,2.37 0,2.41 0,2.36 0,2.32 -0.27,2.28 -0.55,2.25 -0.81,2.15 -1.07,2.05 -1.30,1.89 -1.53,1.73 -1.72,1.52 -1.91,1.31 -2.04,1.07 -2.17,0.82 -2.23,0.55 -2.30,0.27 -2.30,-0.00 -2.30,-0.27 -2.23,-0.55 -2.17,-0.82 -2.04,-1.07 -1.91,-1.31 -1.72,-1.52 -1.53,-1.73 -1.30,-1.89 -1.07,-2.05 -0.81,-2.15 -0.55,-2.25 -0.27,-2.28 0.00,-2.32 0.00,-2.32 L 0,-2.32 Z"></path></g><g transform="translate(1492 692) rotate(0 -1.5 4)" stroke="none"><path fill="#1971c2" d="M 2.46,0 Q 2.46,0 2.45,1.48 2.44,2.97 2.09,4.07 1.75,5.17 0.45,7.42 -0.84,9.67 -1.16,9.97 -1.48,10.27 -1.89,10.46 -2.29,10.64 -2.73,10.68 -3.17,10.72 -3.60,10.62 -4.03,10.52 -4.41,10.29 -4.79,10.06 -5.07,9.72 -5.35,9.38 -5.51,8.97 -5.67,8.56 -5.69,8.11 -5.71,7.67 -5.59,7.25 -5.46,6.82 -5.21,6.46 -4.96,6.09 -4.61,5.83 -4.25,5.57 -3.83,5.43 -3.41,5.29 -2.97,5.30 -2.52,5.30 -2.11,5.45 -1.69,5.59 -1.34,5.86 -0.99,6.14 -0.75,6.50 -0.50,6.87 -0.39,7.30 -0.27,7.73 -0.30,8.17 -0.33,8.61 -0.50,9.02 -0.67,9.43 -0.96,9.76 -1.25,10.10 -1.63,10.32 -2.01,10.55 -2.44,10.64 -2.88,10.73 -3.31,10.67 -3.75,10.62 -4.15,10.43 -4.55,10.24 -4.87,9.93 -5.19,9.63 -5.39,9.23 -5.60,8.84 -5.66,8.40 -5.73,7.97 -5.65,7.53 -5.58,7.09 -5.37,6.71 -5.15,6.32 -5.15,6.32 -5.15,6.32 -3.80,4.54 -2.44,2.77 -2.45,1.38 -2.46,0 -2.43,-0.29 -2.39,-0.59 -2.28,-0.86 -2.18,-1.14 -2.01,-1.39 -1.84,-1.63 -1.62,-1.83 -1.40,-2.02 -1.13,-2.16 -0.87,-2.30 -0.58,-2.37 -0.29,-2.44 0.00,-2.44 0.29,-2.44 0.58,-2.37 0.87,-2.30 1.13,-2.16 1.40,-2.02 1.62,-1.83 1.84,-1.63 2.01,-1.39 2.18,-1.14 2.28,-0.86 2.39,-0.59 2.43,-0.29 2.46,0.00 2.46,0.00 L 2.46,0 Z"></path></g><g transform="translate(1460 718) rotate(0 0.00004999999998744897 0.00004999999998744897)" stroke="none"><path fill="#1971c2" d="M 1.57,-1.57 Q 1.57,-1.57 1.77,-1.27 1.98,-0.98 2.09,-0.64 2.20,-0.29 2.19,0.05 2.18,0.41 2.05,0.75 1.93,1.09 1.70,1.37 1.48,1.65 1.18,1.84 0.87,2.04 0.52,2.12 0.18,2.21 -0.17,2.18 -0.53,2.15 -0.86,2.01 -1.19,1.87 -1.46,1.63 -1.73,1.39 -1.90,1.07 -2.08,0.76 -2.15,0.41 -2.21,0.05 -2.17,-0.29 -2.12,-0.65 -1.96,-0.97 -1.80,-1.29 -1.54,-1.54 -1.29,-1.80 -0.97,-1.96 -0.65,-2.12 -0.29,-2.17 0.06,-2.21 0.41,-2.15 0.76,-2.08 1.07,-1.90 1.39,-1.73 1.63,-1.46 1.87,-1.19 2.01,-0.86 2.15,-0.53 2.18,-0.17 2.21,0.18 2.12,0.52 2.03,0.87 1.84,1.18 1.65,1.48 1.37,1.70 1.09,1.93 0.75,2.05 0.41,2.18 0.05,2.19 -0.30,2.20 -0.64,2.09 -0.98,1.98 -1.27,1.77 -1.57,1.56 -1.57,1.57 -1.57,1.57 -1.73,1.35 -1.90,1.14 -2.01,0.90 -2.12,0.66 -2.16,0.39 -2.21,0.13 -2.20,-0.13 -2.18,-0.40 -2.10,-0.65 -2.02,-0.91 -1.88,-1.14 -1.74,-1.36 -1.55,-1.55 -1.36,-1.74 -1.14,-1.88 -0.91,-2.02 -0.65,-2.10 -0.40,-2.18 -0.13,-2.20 0.13,-2.21 0.39,-2.16 0.66,-2.12 0.90,-2.01 1.14,-1.90 1.35,-1.73 1.57,-1.57 1.57,-1.57 L 1.57,-1.57 Z"></path></g></svg>